<svg width="36" height="35" fill="none" xmlns="http://www.w3.org/2000/svg"><path fill-rule="evenodd" clip-rule="evenodd" d="M17.75 35c9.665 0 17.5-7.835 17.5-17.5S27.415 0 17.75 0 .25 7.835.25 17.5 8.085 35 17.75 35zm5.409-25.375c1.31 0 2.466 1.156 2.466 2.466v9.943c0 1.31-1.156 2.466-2.466 2.466h-2.62v-5.626h2.465v-2.467h-2.466v-1.002c0-.462.231-.693.463-.693h2.003v-2.466h-2.003c-1.542 0-2.775 1.464-2.775 3.16v1.001h-1.85v2.467h1.85V24.5h-5.01c-1.31 0-2.466-1.156-2.466-2.466V12.09c0-1.31 1.156-2.466 2.466-2.466h9.943z" fill="#E0E0E0"/></svg>