<svg width="36" height="35" fill="none" xmlns="http://www.w3.org/2000/svg"><path fill-rule="evenodd" clip-rule="evenodd" d="M18.25 35c9.665 0 17.5-7.835 17.5-17.5S27.915 0 18.25 0 .75 7.835.75 17.5 8.585 35 18.25 35zm-4.883-24.5h10.641c1.202 0 2.117.915 2.117 2.117v10.641c0 1.202-.915 2.117-2.117 2.117H13.367c-1.202 0-2.117-.915-2.117-2.117V12.617c0-1.202.915-2.117 2.117-2.117zm9.783 7.61c0 2.345-2.002 4.29-4.462 4.29s-4.463-1.945-4.406-4.348c0-.4.057-.801.172-1.201h-1.316v6.121c0 .343.286.572.572.572h9.955a.573.573 0 00.572-.572v-6.064h-1.259c.115.343.172.8.172 1.201zm-7.323-.23c0 1.545 1.259 2.804 2.86 2.804 1.602 0 2.861-1.202 2.861-2.804 0-1.544-1.259-2.803-2.86-2.803-1.602 0-2.861 1.259-2.861 2.803zm7.723-2.689c.344 0 .63-.286.63-.629v-1.545a.635.635 0 00-.63-.629h-1.6a.635.635 0 00-.63.63v1.544c0 .343.286.63.63.63h1.601z" fill="#E0E0E0"/></svg>