<svg width="40" height="40" fill="none" xmlns="http://www.w3.org/2000/svg"><path fill-rule="evenodd" clip-rule="evenodd" d="M20 40c11.046 0 20-8.954 20-20S31.046 0 20 0 0 8.954 0 20s8.954 20 20 20zm-5.58-28h12.16c1.374 0 2.42 1.046 2.42 2.42v12.16c0 1.374-1.046 2.42-2.42 2.42H14.42C13.045 29 12 27.954 12 26.58V14.42c0-1.374 1.046-2.42 2.42-2.42zm11.18 8.696c0 2.68-2.289 4.904-5.1 4.904-2.811 0-5.1-2.223-5.035-4.97 0-.457.066-.915.197-1.372h-1.504v6.996c0 .392.327.654.654.654h11.377a.655.655 0 00.653-.654v-6.93h-1.438c.13.391.196.914.196 1.372zm-8.37-.261c0 1.765 1.44 3.204 3.27 3.204s3.27-1.374 3.27-3.204c0-1.766-1.44-3.204-3.27-3.204s-3.27 1.438-3.27 3.204zm8.828-3.073a.726.726 0 00.719-.72v-1.765a.726.726 0 00-.72-.72h-1.83a.726.726 0 00-.72.72v1.765c0 .393.328.72.72.72h1.83z" fill="#fff"/></svg>