<svg width="180" height="27" fill="none" xmlns="http://www.w3.org/2000/svg"><path d="M12.392 18.048c0-.87-.304-1.534-.911-1.994-.608-.47-1.701-.961-3.28-1.473-1.58-.521-2.83-1.033-3.751-1.534C1.939 11.677.683 9.831.683 7.51c0-1.207.334-2.28 1.003-3.222.678-.95 1.645-1.692 2.9-2.224 1.266-.532 2.683-.798 4.252-.798 1.58 0 2.987.292 4.222.875 1.235.572 2.192 1.386 2.87 2.439.689 1.053 1.033 2.25 1.033 3.59h-4.556c0-1.023-.319-1.816-.957-2.378-.637-.573-1.533-.86-2.688-.86-1.113 0-1.979.241-2.596.722-.618.47-.927 1.094-.927 1.871 0 .727.36 1.335 1.078 1.826.73.49 1.797.951 3.205 1.38 2.591.788 4.48 1.765 5.664 2.93 1.185 1.167 1.777 2.619 1.777 4.358 0 1.933-.724 3.451-2.172 4.556-1.447 1.094-3.396 1.641-5.846 1.641-1.701 0-3.25-.312-4.647-.936-1.397-.634-2.466-1.498-3.205-2.592C.364 19.593 0 18.324 0 16.882h4.571c0 2.465 1.458 3.697 4.374 3.697 1.083 0 1.928-.22 2.536-.66.607-.45.91-1.073.91-1.87zm15.854-2.316h-3.63v8.177h-4.555V1.572h8.216c2.612 0 4.626.588 6.044 1.764 1.417 1.176 2.126 2.838 2.126 4.986 0 1.524-.33 2.797-.987 3.82-.648 1.013-1.635 1.82-2.962 2.424l4.784 9.128v.215h-4.89l-4.146-8.177zm-3.63-3.728h3.676c1.144 0 2.03-.291 2.657-.874.628-.594.942-1.407.942-2.44 0-1.053-.299-1.882-.896-2.485-.587-.603-1.493-.905-2.718-.905h-3.66v6.704zM43.064 0h-1.458v27h1.458V0zm11.342 15.7c0-.497-.173-.877-.52-1.14-.348-.269-.972-.549-1.875-.841-.902-.298-1.617-.59-2.143-.877-1.435-.783-2.152-1.838-2.152-3.164 0-.69.19-1.304.572-1.841.388-.544.94-.968 1.658-1.271.723-.304 1.533-.456 2.43-.456.902 0 1.706.166 2.412.5.706.327 1.253.791 1.64 1.393.394.602.59 1.286.59 2.052h-2.603c0-.585-.182-1.038-.547-1.36-.364-.327-.876-.49-1.536-.49-.636 0-1.13.137-1.484.412a1.278 1.278 0 00-.529 1.07c0 .414.205.762.616 1.043.417.28 1.027.543 1.831.788 1.481.45 2.56 1.009 3.237 1.675.677.666 1.015 1.496 1.015 2.49 0 1.104-.413 1.972-1.24 2.603-.828.625-1.942.938-3.342.938-.972 0-1.857-.178-2.655-.535-.798-.362-1.409-.856-1.831-1.481-.417-.626-.625-1.35-.625-2.174h2.612c0 1.408.833 2.112 2.5 2.112.618 0 1.101-.125 1.449-.377.347-.257.52-.613.52-1.07zm14.657 3.349H66.46l-5.068-8.398v8.398h-2.604V6.285h2.604l5.076 8.416V6.285h2.595v12.764zm5.042 0H71.5V6.285h2.604v12.764zm5.025-4.497v4.497h-2.604V6.285h4.929c.949 0 1.782.175 2.5.526.722.35 1.278.85 1.665 1.499.388.643.582 1.376.582 2.2 0 1.251-.426 2.239-1.276 2.963-.845.72-2.016 1.079-3.514 1.079h-2.283zm0-2.13h2.325c.688 0 1.212-.164 1.57-.492.365-.327.547-.794.547-1.402 0-.625-.182-1.131-.546-1.517-.365-.385-.868-.584-1.51-.596h-2.387v4.006zm16.47 1.095h-5v3.419h5.867v2.113h-8.47V6.285h8.452v2.13H90.6v3.042h5v2.06zm7.072.859h-2.074v4.673h-2.603V6.285h4.694c1.493 0 2.644.336 3.454 1.008.81.672 1.215 1.622 1.215 2.85 0 .87-.188 1.598-.564 2.182-.37.579-.934 1.04-1.692 1.385l2.733 5.216v.123h-2.794l-2.369-4.673zm-2.074-2.13h2.1c.654 0 1.16-.167 1.519-.5.358-.339.538-.803.538-1.394 0-.601-.171-1.075-.512-1.42-.336-.344-.854-.517-1.554-.517h-2.091v3.831zm15.299 3.454c0-.497-.173-.877-.521-1.14-.347-.269-.971-.549-1.874-.841-.902-.298-1.617-.59-2.143-.877-1.435-.783-2.152-1.838-2.152-3.164 0-.69.19-1.304.572-1.841.388-.544.94-.968 1.658-1.271.723-.304 1.533-.456 2.429-.456.903 0 1.707.166 2.413.5.706.327 1.252.791 1.64 1.393.393.602.59 1.286.59 2.052h-2.603c0-.585-.182-1.038-.547-1.36-.364-.327-.876-.49-1.536-.49-.636 0-1.131.137-1.484.412a1.278 1.278 0 00-.529 1.07c0 .414.205.762.616 1.043.417.28 1.027.543 1.831.788 1.481.45 2.56 1.009 3.237 1.675.677.666 1.015 1.496 1.015 2.49 0 1.104-.414 1.972-1.241 2.603-.827.625-1.941.938-3.341.938-.972 0-1.857-.178-2.655-.535-.799-.362-1.409-.856-1.831-1.481-.417-.626-.625-1.35-.625-2.174h2.612c0 1.408.833 2.112 2.499 2.112.619 0 1.102-.125 1.449-.377.348-.257.521-.613.521-1.07zm6.986-1.148v4.497h-2.604V6.285h4.929c.949 0 1.782.175 2.5.526.723.35 1.278.85 1.666 1.499.387.643.581 1.376.581 2.2 0 1.251-.425 2.239-1.276 2.963-.844.72-2.016 1.079-3.514 1.079h-2.282zm0-2.13h2.325c.689 0 1.212-.164 1.571-.492.365-.327.547-.794.547-1.402 0-.625-.182-1.131-.547-1.517-.364-.385-.868-.584-1.51-.596h-2.386v4.006zm11.637 6.627h-2.604V6.285h2.604v12.764zm12.695 0h-2.603l-5.068-8.398v8.398h-2.603V6.285h2.603l5.077 8.416V6.285h2.594v12.764zm2.239-1.245c0-.403.133-.73.399-.982.272-.251.611-.377 1.016-.377.41 0 .749.126 1.015.377.272.251.408.579.408.982 0 .397-.133.722-.399.973-.267.245-.608.368-1.024.368-.411 0-.75-.123-1.016-.368-.266-.251-.399-.576-.399-.973zm14.31-3.428h-2.074v4.673h-2.603V6.285h4.694c1.493 0 2.644.336 3.454 1.008.81.672 1.215 1.622 1.215 2.85 0 .87-.188 1.598-.564 2.182-.37.579-.935 1.04-1.692 1.385l2.733 5.216v.123h-2.794l-2.369-4.673zm-2.074-2.13h2.1c.654 0 1.16-.167 1.518-.5.359-.339.539-.803.539-1.394 0-.601-.171-1.075-.512-1.42-.336-.344-.854-.517-1.554-.517h-2.091v3.831zM180 6.285v8.407c0 1.397-.434 2.501-1.302 3.314-.862.812-2.042 1.218-3.54 1.218-1.475 0-2.647-.395-3.515-1.183-.867-.79-1.31-1.873-1.327-3.253V6.285h2.603v8.424c0 .836.197 1.447.59 1.832.399.38.949.57 1.649.57 1.463 0 2.207-.777 2.23-2.332V6.286H180z" fill="#fff"/></svg>