<svg width="65" height="39" fill="none" xmlns="http://www.w3.org/2000/svg"><path d="M32.261 33.551c3.864-3.558 6.304-8.642 6.304-14.233 0-5.694-2.44-10.777-6.303-14.234-3.457-3.05-7.93-4.982-12.913-4.982C8.674.102.032 8.744.032 19.318c0 10.675 8.642 19.317 19.317 19.317 4.982-.102 9.456-2.034 12.912-5.084z" fill="#3362AB"/><path d="M32.261 33.55c3.864-3.558 6.304-8.641 6.304-14.233 0-5.694-2.44-10.777-6.303-14.234" fill="#3362AB"/><path d="M32.261 33.55c3.864-3.558 6.304-8.641 6.304-14.233 0-5.694-2.44-10.777-6.303-14.234" stroke="#3362AB" stroke-width=".31"/><path d="M45.173 0a19.242 19.242 0 00-12.912 4.982c-.711.61-1.321 1.321-1.931 2.033h3.863c.509.61 1.017 1.322 1.424 2.034h-6.812a12.98 12.98 0 00-1.119 2.033h9.049c.305.712.61 1.322.813 2.033H26.873c-.203.712-.407 1.322-.61 2.034h11.794c.305 1.322.406 2.643.406 4.066 0 2.136-.305 4.169-1.016 6.1H26.77c.204.712.509 1.424.814 2.034h9.048a13.029 13.029 0 01-1.118 2.034h-6.812a14.53 14.53 0 001.423 2.033h3.864c-.61.712-1.22 1.423-1.932 2.033 3.457 3.05 7.93 4.982 12.912 4.982 10.675 0 19.216-8.642 19.216-19.317C64.49 8.642 55.849 0 45.173 0z" fill="#C9191B"/><path d="M16.91 23.994h-2.44l1.423-7.524-3.254 7.524h-2.135l-.406-7.422-1.424 7.422H6.54l1.83-9.76h3.762l.203 6.1 2.644-6.1h3.863l-1.932 9.76zm26.84 0c-.61.204-1.22.305-1.728.305-1.22 0-1.932-.61-1.932-1.728 0-.203 0-.508.102-.712l.101-.813.102-.61 1.118-6.1h2.339l-.305 1.83h1.22l-.305 1.931h-1.22l-.61 3.356v.305c0 .406.305.61.813.61.305 0 .508 0 .61-.102l-.305 1.728zm6.914-7.829c-.204-.101-.204-.101-.305-.101h-.509c-.813 0-1.321.305-2.135 1.321l.204-1.22h-1.932l-1.424 7.93h2.44c.814-4.88 1.22-5.693 2.339-5.693h.305l.305.102.712-2.339zm-16.471 2.441c0 1.016.61 1.728 1.83 2.236 1.017.407 1.118.509 1.118.916 0 .508-.406.711-1.423.711a7.737 7.737 0 01-2.135-.305l-.305 1.83h.102l.406.102c.102 0 .407.102.61.102.61 0 1.017.101 1.322.101 2.542 0 3.762-.813 3.762-2.643 0-1.118-.508-1.729-1.728-2.237-1.017-.407-1.119-.508-1.119-.915 0-.407.407-.61 1.22-.61.509 0 1.119 0 1.729.102l.305-1.83c-.61-.102-1.526-.204-2.136-.204-2.643 0-3.558 1.22-3.558 2.644zM23.01 20.538h-.51c-1.322 0-2.033.406-2.033 1.22 0 .508.305.813.813.813.915-.102 1.627-.915 1.729-2.034zm1.728 3.456h-2.034l.102-.813c-.61.61-1.423.915-2.541.915-1.322 0-2.136-.915-2.136-2.135 0-1.932 1.525-3.05 4.169-3.05.305 0 .61 0 1.017.101.101-.305.101-.406.101-.508 0-.508-.407-.712-1.525-.712-.711 0-1.423.102-1.932.204l-.305.102-.203.101.305-1.83c1.22-.305 1.932-.407 2.847-.407 2.033 0 3.152.814 3.152 2.339 0 .407 0 .712-.204 1.525l-.508 2.847-.102.508-.101.407v.305l-.102.101zm6.608-4.88v-.407c0-.61-.406-1.017-1.118-1.017-.813 0-1.322.509-1.525 1.424h2.643zm1.22 4.778a9.988 9.988 0 01-2.44.305c-2.643 0-4.066-1.22-4.066-3.558 0-2.745 1.728-4.779 4.168-4.779 1.932 0 3.253 1.119 3.253 2.847 0 .61-.101 1.119-.305 1.932h-4.778v.203c0 .915.712 1.424 2.135 1.424.813 0 1.627-.204 2.542-.509l-.509 2.135zm23.079-4.472c0-.814-.305-1.628-1.321-1.628-1.22 0-1.932 1.424-1.932 2.745 0 1.119.508 1.83 1.423 1.83.509 0 1.627-.711 1.83-1.931v-1.017zm2.542 1.016c-.407 2.643-2.237 3.863-4.677 3.863-2.745 0-3.761-1.626-3.761-3.66 0-2.846 1.83-4.677 4.676-4.677 2.542 0 3.762 1.525 3.762 3.559.102.406.102.406 0 .915z" fill="#fff"/></svg>