<svg width="92" height="23" fill="none" xmlns="http://www.w3.org/2000/svg"><path d="M35.11 9.694c-.237 1.783-1.664 1.783-2.972 1.783h-.713l.595-3.447c0-.238.237-.357.475-.357h.357c.95 0 1.783 0 2.258.476v1.545zm-.594-4.755h-5.112c-.356 0-.594.238-.713.594l-2.02 13.077c0 .237.118.475.475.475h2.377c.357 0 .595-.238.713-.594l.595-3.567c0-.356.356-.594.713-.594h1.664c3.329 0 5.23-1.664 5.825-4.874.238-1.426 0-2.496-.594-3.328-.951-.714-2.259-1.189-3.923-1.189zm11.768 9.509c-.237 1.427-1.307 2.378-2.734 2.378-.713 0-1.307-.238-1.664-.713-.357-.476-.475-1.07-.357-1.665.238-1.426 1.308-2.377 2.735-2.377.713 0 1.307.238 1.664.713.238.357.475.951.356 1.664zm3.329-4.754h-2.378c-.237 0-.356.118-.475.356l-.119.713-.119-.237c-.475-.714-1.664-1.07-2.853-1.07-2.734 0-4.992 2.02-5.468 4.874-.238 1.426.119 2.734.95 3.685.714.832 1.784 1.188 3.092 1.188 2.14 0 3.328-1.426 3.328-1.426l-.119.713c0 .238.12.476.476.476h2.14c.356 0 .594-.238.713-.595l1.307-8.32c0-.12-.119-.357-.475-.357zm12.957 0h-2.496a.654.654 0 00-.595.357l-3.328 4.992-1.427-4.754c-.119-.357-.356-.476-.713-.476h-2.377c-.238 0-.476.238-.357.594l2.734 7.846-2.496 3.566c-.238.238 0 .713.356.713h2.497a.654.654 0 00.594-.356l8.083-11.769c.12-.356-.118-.713-.475-.713z" fill="#263577"/><path d="M71.248 9.694c-.238 1.783-1.664 1.783-2.972 1.783h-.713l.594-3.447c0-.238.238-.357.476-.357h.356c.951 0 1.783 0 2.259.476.119.475.119.95 0 1.545zm-.594-4.755h-5.112c-.357 0-.594.238-.713.594L62.808 18.61c0 .237.119.475.475.475H65.9c.237 0 .475-.119.475-.476l.595-3.685c0-.356.356-.594.713-.594h1.664c3.328 0 5.23-1.664 5.825-4.874.237-1.426 0-2.496-.595-3.328-.832-.714-2.14-1.189-3.922-1.189zm11.887 9.509c-.238 1.427-1.308 2.378-2.734 2.378-.713 0-1.308-.238-1.664-.713-.357-.476-.476-1.07-.357-1.665.238-1.426 1.308-2.377 2.734-2.377.713 0 1.308.238 1.664.713.238.357.476.951.357 1.664zm3.329-4.754h-2.378c-.238 0-.357.118-.476.356l-.118.713-.12-.237c-.475-.714-1.663-1.07-2.852-1.07-2.734 0-4.993 2.02-5.468 4.874-.238 1.426.118 2.734.95 3.685.714.832 1.784 1.188 3.091 1.188 2.14 0 3.329-1.426 3.329-1.426l-.12.713c0 .238.12.476.476.476h2.14c.357 0 .594-.238.713-.595l1.308-8.32c0-.12-.238-.357-.475-.357zm2.852-4.398l-2.14 13.313c0 .238.12.476.476.476h2.14c.356 0 .594-.238.713-.594l2.02-13.077c0-.237-.118-.475-.475-.475H89.08c-.119 0-.238.238-.357.357z" fill="#2199D6"/><path d="M5.51 21.581l.357-2.496H.875L3.726.897s0-.119.12-.119h7.132c2.258 0 3.922.476 4.755 1.427.356.475.594.95.713 1.426.119.595.119 1.189 0 2.021v.476l.356.237c.357.12.595.357.832.595.357.356.595.832.595 1.426.119.595.119 1.308-.119 2.14-.238.951-.476 1.664-.832 2.377-.357.595-.832 1.07-1.308 1.546-.475.357-1.188.594-1.783.832-.713.119-1.426.238-2.258.238h-.595c-.356 0-.713.119-1.07.356a2.59 2.59 0 00-.594.951v.238l-.713 4.398v.238H5.51v-.119z" fill="#263577"/><path d="M17.28 5.652c0 .119 0 .238-.12.357-.95 4.755-4.041 6.3-8.083 6.3H7.056c-.476 0-.951.357-.951.832l-1.07 6.657-.238 1.902c0 .357.238.595.476.595h3.685c.475 0 .832-.357.832-.714v-.238l.713-4.279v-.238c.12-.475.476-.713.832-.713h.595c3.566 0 6.3-1.426 7.013-5.587.357-1.783.12-3.21-.713-4.16-.238-.238-.594-.476-.95-.714z" fill="#2199D6"/><path d="M16.328 5.296c-.119 0-.238-.12-.475-.12-.12 0-.357-.118-.476-.118-.594-.119-1.189-.119-1.783-.119H8.126c-.119 0-.238 0-.357.119-.238.119-.475.356-.475.594l-1.189 7.37v.238c.119-.475.475-.832.951-.832h2.02c4.043 0 7.133-1.664 8.084-6.3 0-.12 0-.238.12-.357l-.714-.357c-.119-.118-.238-.118-.238-.118z" fill="#252C5E"/><path d="M7.294 5.652c0-.238.237-.476.475-.595.119 0 .238-.119.357-.119h5.468c.594 0 1.308 0 1.783.12.119 0 .357 0 .475.118.12 0 .238.119.476.119.119 0 .119 0 .238.119l.713.356c.238-1.783 0-2.971-.951-4.041-1.07-1.19-2.972-1.665-5.35-1.665H3.966c-.475 0-.95.357-.95.833L.16 19.203c0 .357.238.713.595.713h4.279l1.07-6.894 1.189-7.37z" fill="#263577"/></svg>