<svg width="118" height="23" fill="none" xmlns="http://www.w3.org/2000/svg"><path d="M30.77 14.188a5.197 5.197 0 001.793 1.264c.825.316 1.7.47 2.58.454.503 0 .974-.065 1.36-.098a5.31 5.31 0 001.132-.28c.346-.098.629-.261.912-.356.224-.132.455-.25.691-.356l-.351-.76a6.055 6.055 0 01-.599.28 6.383 6.383 0 01-.628.258 3.094 3.094 0 01-.787.163 4.89 4.89 0 01-1.04.064 3.283 3.283 0 01-1.792-.454 3.592 3.592 0 01-1.132-1.165 5.964 5.964 0 01-.544-1.749 16.115 16.115 0 01-.158-2.203c0-.616.062-1.263.095-1.91.047-.588.2-1.16.449-1.69.224-.495.558-.927.974-1.264a3.174 3.174 0 011.763-.519 2.933 2.933 0 011.76.56c.504.357.787.94.912 1.718h.787V3.66c-.25-.098-.504-.194-.787-.28a4.159 4.159 0 00-.911-.194c-.346-.064-.629-.064-.974-.098-.272 0-.599-.064-.817-.064a7.715 7.715 0 00-2.737.454 4.688 4.688 0 00-1.867 1.308 4.88 4.88 0 00-1.058 2.054 9.405 9.405 0 00-.346 2.755 8.66 8.66 0 00.346 2.626c.163.728.498 1.403.974 1.967zm47.725 1.298a4.103 4.103 0 001.606-.519 2.74 2.74 0 001.132-1.264 4.972 4.972 0 00.44-2.267 4.72 4.72 0 00-.272-1.748 2.82 2.82 0 00-.911-1.2 4.427 4.427 0 00-1.668-.647 11.242 11.242 0 00-2.485-.193h-1.04V4.663a.799.799 0 01.189-.616c.25-.1.52-.133.786-.099h1.478c.378-.014.757.007 1.132.065.25.015.49.106.69.26.198.162.35.375.441.617.144.345.26.703.346 1.068h.61V3.172h-8.98v.39c.063 0 .095.064.25.064.158.065.254.098.272.163.065.085.118.18.158.28 0 .162.063.28.063.518v9.59a1.3 1.3 0 01-.063.518c0 .163-.062.258-.157.28a.422.422 0 01-.273.163.532.532 0 01-.25.065v.39h4.53a18.9 18.9 0 001.976-.107zm-2.969-.908a.461.461 0 01-.157-.356c0-.163-.063-.356-.063-.617V8.39h1.04c.911 0 1.605.258 2.013.746.408.487.599 1.294.599 2.398a6.522 6.522 0 01-.188 1.749 2.486 2.486 0 01-.544 1.003c-.224.18-.467.332-.724.454-.29.065-.585.098-.882.098-.272-.064-.544-.064-.69-.098a.586.586 0 01-.404-.162zm-9.866.616c-.063 0-.095-.064-.25-.064-.158-.065-.254-.098-.273-.163-.019-.064-.095-.162-.157-.28 0-.163-.063-.28-.063-.518v-3.447h1.227a10.571 10.571 0 001.793-.163 4.207 4.207 0 001.51-.56 2.74 2.74 0 001.04-1.2 4.76 4.76 0 00.378-2.073 5.027 5.027 0 00-.345-1.912 3.274 3.274 0 00-.98-1.09 3.199 3.199 0 00-1.415-.454c-.553-.066-1.11-.1-1.668-.098h-4.792v.39c.063 0 .096.064.253.064.158.065.25.098.272.163.065.085.119.18.158.28 0 .162.063.28.063.518v9.56c.014.175-.007.351-.063.518 0 .162-.062.257-.158.28a.422.422 0 01-.272.162.53.53 0 01-.253.065v.356h3.965l.03-.356v.022zm-.661-10.626a.493.493 0 01.062-.28.286.286 0 01.095-.194.38.38 0 01.272-.098c.158 0 .273-.064.545-.064.295.016.59.049.881.098.269.1.515.254.724.454.207.253.376.536.504.84.106.423.16.858.157 1.295 0 1.068-.157 1.847-.44 2.399-.283.552-.817.84-1.573.84h-1.227v-5.29zm-4.907 8.162h-.786a10.29 10.29 0 01-.272 1.167c-.053.253-.186.48-.378.647a.924.924 0 01-.691.258 6.324 6.324 0 01-1.228.064 5.304 5.304 0 01-1.132-.064 1.83 1.83 0 01-.628-.194.493.493 0 01-.25-.39 2.282 2.282 0 01-.063-.71V9.555h2.087c.188 0 .378.064.599.064a4.5 4.5 0 01.598.098c.175.045.343.11.504.194v-1.62a1.182 1.182 0 01-.504.193c-.395.076-.794.13-1.194.163h-2.11v-4.12c.001-.19.034-.38.096-.56.095-.098.253-.098.503-.098h1.323a5.96 5.96 0 011.132.064c.249.02.487.11.691.258.198.162.35.374.44.617.145.346.26.704.346 1.07h.629V3.172h-8.395v.39c.063 0 .096.064.25.064.159.065.251.098.273.163.065.085.118.18.158.28 0 .162.062.28.062.518v9.56a1.3 1.3 0 01-.062.518c0 .162-.063.257-.158.28a.422.422 0 01-.272.162.532.532 0 01-.25.065v.356h8.682V12.73zm-13.276 2.756a4.104 4.104 0 001.606-.519c.5-.294.906-.734 1.164-1.264a4.967 4.967 0 00.441-2.267 4.713 4.713 0 00-.272-1.748 2.82 2.82 0 00-.912-1.2 4.428 4.428 0 00-1.668-.647 11.237 11.237 0 00-2.484-.193h-1.04V4.663a.802.802 0 01.188-.616c.25-.1.52-.133.787-.099h1.477c.379-.014.758.007 1.132.065.25.021.488.111.691.26.198.162.35.375.441.617.144.345.26.703.346 1.068h.628V3.172h-9.006v.39c.062 0 .095.064.253.064.157.065.25.098.272.163.065.085.118.18.158.28 0 .162.062.28.062.518v9.56c.012.174-.009.35-.062.518 0 .162-.063.257-.158.28a.422.422 0 01-.272.162.531.531 0 01-.253.065v.454h4.53c.73-.042 1.32-.042 1.951-.14zm-2.958-.908a.461.461 0 01-.157-.356c0-.163-.063-.356-.063-.617V8.39h1.04c.911 0 1.605.258 2.013.746.408.487.599 1.294.599 2.398a6.538 6.538 0 01-.188 1.749 2.486 2.486 0 01-.544 1.003c-.224.18-.467.332-.724.454-.29.065-.585.098-.882.098-.272-.064-.503-.064-.69-.098a.531.531 0 01-.404-.162zm74.06 4.534h-88.53v1.2h88.53v-1.2zm-7.08-8.194c.253.356.441.647.691.939.188.28.441.616.629.908.188.317.398.62.628.907.232.32.442.655.629 1.004.188.28.346.647.503.938l4.082.065c-.441-.454-.816-.908-1.257-1.362-.378-.454-.724-.84-.977-1.101-.378-.454-.724-.841-1.037-1.2a31.921 31.921 0 01-.911-1.101 12.384 12.384 0 01-.817-1.101c-.22-.356-.544-.81-.786-1.2l.188-.258c.272-.389.628-.81 1.039-1.294a13.47 13.47 0 011.227-1.457c.398-.475.821-.928 1.266-1.357.357-.338.735-.651 1.132-.938h-2.833a7.942 7.942 0 01-.441.907c-.199.404-.43.789-.691 1.152-.25.39-.544.84-.786 1.295-.243.454-.545.84-.817 1.264-.272.423-.544.81-.786 1.101-.25.356-.441.617-.599.84.221.334.471.693.724 1.049z" fill="#2F9A41"/><path d="M110.493 15.194c-.063 0-.096-.064-.254-.064-.157-.065-.25-.098-.272-.163a1.148 1.148 0 01-.157-.28c0-.163-.063-.28-.063-.518V4.64a1.284 1.284 0 01.063-.519c0-.162.062-.258.157-.28.083-.067.175-.122.272-.163a.533.533 0 01.254-.064v-.42h-3.965v.39c.062 0 .095.064.253.064.158.064.25.098.272.162.065.086.118.18.158.28 0 .163.062.28.062.519v9.558c.015.176-.006.353-.062.519 0 .163-.063.258-.158.28a.418.418 0 01-.272.163.532.532 0 01-.253.064v.356h3.965v-.356zm-26.259-1.101c.158-.712.44-1.718.816-2.982h3.87l.544 1.62a12.4 12.4 0 01.544 1.813c.131.354.216.724.25 1.101h3.084c-.158-.258-.273-.616-.504-1.003a15.912 15.912 0 01-.691-1.748L89.35 4.727a4.52 4.52 0 01-.253-.908c-.063-.258-.063-.454-.096-.617h-3.458v.39c.062 0 .095.064.25.064.158.064.25.098.272.163.065.085.118.18.158.28v.258c.003.278-.051.554-.158.81l-1.95 4.923c-.346.908-.692 1.718-.912 2.3-.22.584-.504 1.167-.629 1.556-.188.39-.346.746-.503 1.003-.126.21-.242.426-.346.648h2.202c.073-.508.175-1.01.307-1.505zm2.77-8.878l1.584 5.022H85.26l1.744-5.022zm10.933 9.979h-.098c-.062 0-.095-.064-.253-.064-.157-.065-.25-.098-.272-.163a1.182 1.182 0 01-.158-.28c0-.163-.062-.28-.062-.518V9.404h4.688v4.73c.015.175-.006.352-.062.518 0 .163-.063.258-.158.28a.423.423 0 01-.272.163.532.532 0 01-.251.065v.389h3.965v-.39c-.063 0-.095-.064-.25-.064-.158-.064-.253-.098-.272-.162a1.114 1.114 0 01-.158-.28c0-.163-.063-.28-.063-.52V4.53a1.301 1.301 0 01.063-.519c0-.162.062-.258.158-.28.083-.067.174-.122.272-.163a.53.53 0 01.25-.064v-.33h-3.899v.389c.062 0 .095.064.25.064.158.065.253.098.272.163.065.085.118.18.158.28 0 .162.063.28.063.518v3.996h-4.632V4.568a1.305 1.305 0 01.063-.519c0-.162.063-.257.158-.28.083-.067.174-.122.272-.162a.463.463 0 01.25-.065v-.37h-3.954v.39c.063 0 .096.064.25.064.159.065.251.098.273.163.065.085.118.18.158.28 0 .162.062.28.062.518v9.59c.012.175-.009.351-.062.518 0 .163-.063.258-.158.28a.423.423 0 01-.272.163.532.532 0 01-.25.065v.39h3.964l-.033-.421v.022zM21.333 4.47a19.426 19.426 0 01-.724-1.07L7.08 11.402.55 7.547A4.81 4.81 0 00.277 8.84l6.866 4.095 14.19-8.466z" fill="#2F9A41"/><path d="M7.08 14.415L.065 10.268a3.247 3.247 0 00-.062.776c0 3.17 1.223 6.212 3.4 8.454C5.58 21.74 8.533 23 11.613 23c3.078 0 6.031-1.26 8.208-3.502 2.177-2.242 3.4-5.283 3.4-8.454a12.02 12.02 0 00-1.256-5.442L7.08 14.415z" fill="#2F9A41"/><path d="M19.665 2.396c-.33-.321-.677-.624-1.04-.908L7.08 8.39 1.513 5.117c-.188.356-.378.745-.599 1.166l6.104 3.629 12.647-7.516z" fill="#2F9A41"/><path d="M17.494.712c-.437-.27-.892-.507-1.36-.712L7.08 5.37 3.023 3.011c-.272.28-.544.648-.816 1.004L7.05 6.868 17.494.712z" fill="#2F9A41"/></svg>