<svg width="40" height="40" fill="none" xmlns="http://www.w3.org/2000/svg"><path fill-rule="evenodd" clip-rule="evenodd" d="M20 40c11.046 0 20-8.954 20-20S31.046 0 20 0 0 8.954 0 20s8.954 20 20 20zm-6.051-17.911L9.35 20.374c-.468-.156-.468-.857 0-1.013l18.938-7.326c.39-.156.779.234.701.624l-3.43 16.366c-.077.39-.545.545-.856.311l-4.599-3.35c-.311-.235-.7-.235-.935 0l-2.572 2.104c-.311.233-.779.155-.857-.234l-1.792-5.767zm10.599-6.39l-9.04 5.532c-.39.156-.546.624-.312 1.013l.935 3.43c.078.311.468.233.468 0l.233-1.87c0-.39.234-.702.468-.936l7.404-6.936c.155-.078 0-.312-.156-.234z" fill="#fff"/></svg>