<svg width="35" height="35" fill="none" xmlns="http://www.w3.org/2000/svg"><path fill-rule="evenodd" clip-rule="evenodd" d="M17.5 35C27.165 35 35 27.165 35 17.5S27.165 0 17.5 0 0 7.835 0 17.5 7.835 35 17.5 35zm-5.295-15.672l-4.023-1.5c-.41-.137-.41-.75 0-.887l16.57-6.41c.341-.137.682.204.614.545l-3 14.32c-.068.342-.478.478-.75.273l-4.024-2.932c-.272-.204-.613-.204-.818 0l-2.25 1.841c-.273.205-.682.137-.75-.204l-1.569-5.046zm9.274-5.592l-7.91 4.841c-.34.137-.477.546-.273.887l.819 3c.068.273.409.205.409 0l.204-1.636c0-.341.205-.614.41-.819l6.478-6.069c.136-.068 0-.272-.137-.204z" fill="#E0E0E0"/></svg>