<svg width="35" height="35" fill="none" xmlns="http://www.w3.org/2000/svg"><path fill-rule="evenodd" clip-rule="evenodd" d="M17.5 35C27.165 35 35 27.165 35 17.5S27.165 0 17.5 0 0 7.835 0 17.5 7.835 35 17.5 35zm8.544-13.097c.018.018.036.037.036.073 0 .073 0 .145.146.29v.291c0 .145-.073.218-.218.29a1.37 1.37 0 01-.581.146l-2.47.073c-.146 0-.29 0-.509-.073a3.533 3.533 0 01-.508-.218l-.218-.145c-.146-.073-.364-.29-.654-.581-.29-.291-.509-.509-.654-.727a2.213 2.213 0 00-.581-.581c-.145-.145-.363-.218-.509-.145h-.072l-.145.145a1.004 1.004 0 00-.218.29c-.041.082-.06.164-.08.258a2.29 2.29 0 01-.066.251c-.072.218-.072.436-.072.727v.29c0 .036-.019.055-.037.073-.018.018-.036.036-.036.072l-.073.073a.66.66 0 01-.508.218h-1.09c-.436.073-.872 0-1.38-.145-.436-.146-.872-.29-1.235-.509-.363-.218-.727-.436-1.017-.654a5.934 5.934 0 01-.654-.58l-.218-.219-.29-.29c-.073-.146-.291-.436-.654-.872-.227-.272-.425-.573-.63-.883-.124-.188-.25-.379-.387-.57-.088-.154-.19-.328-.3-.518a60.259 60.259 0 01-.863-1.516c-.435-.872-.871-1.743-1.235-2.615-.072-.146-.072-.218-.072-.29v-.146l.072-.073c.073-.072.218-.145.509-.145h2.615c.037 0 .073.018.11.036a.258.258 0 00.108.037c.073 0 .145.072.145.072h.073c.073.073.145.146.218.29.073.182.145.346.218.51.072.163.145.326.218.508.145.363.29.654.363.799l.145.29c.1.298.233.528.354.737.056.096.109.189.155.28.145.291.29.51.436.654.072.146.218.29.363.364.073.072.218.145.29.145a.47.47 0 00.196-.046c.035-.014.065-.027.095-.027.073 0 .073-.072.073-.072.051 0 .066-.037.096-.11.013-.03.028-.066.05-.108.072-.073.144-.218.144-.436 0-.095.014-.19.03-.298a3.27 3.27 0 00.043-.501v-1.163c0-.29 0-.508-.073-.726a2.399 2.399 0 01-.06-.218c-.023-.1-.04-.173-.085-.218l-.073-.145c-.145-.218-.436-.364-.799-.436-.072 0-.072-.073.073-.218.073-.145.218-.218.363-.29.29-.146 1.09-.219 2.252-.219.509 0 .945.073 1.308.146a.36.36 0 00.145.072.366.366 0 01.145.073l.218.218c0 .036.019.09.037.145a.56.56 0 01.036.146v3.631c.032.064.05.127.066.185.02.073.038.137.08.178l.217.218c0 .073.073.073.146.073 0 .072.145 0 .217-.073.047-.094.124-.157.212-.23.049-.04.1-.082.152-.133.106-.107.212-.252.347-.436l.161-.218c.218-.29.436-.654.654-1.017.073-.147.146-.29.219-.433.288-.563.566-1.109.798-1.747 0-.072 0-.072.073-.145l.072-.072h3.269c.218-.073.436-.073.581 0 .146 0 .218.072.291.145l.073.072c.145.436-.364 1.38-1.453 2.834-.15.15-.265.299-.417.495a153.421 153.421 0 00-.346.443c-.441.567-.695.894-.763 1.096-.072.29-.072.508.145.799.04.04.085.09.138.149.142.16.344.385.662.65.871.799 1.525 1.526 1.816 2.107 0 .036.018.054.036.072z" fill="#E0E0E0"/></svg>