<svg width="40" height="40" fill="none" xmlns="http://www.w3.org/2000/svg"><path fill-rule="evenodd" clip-rule="evenodd" d="M20 40c11.046 0 20-8.954 20-20S31.046 0 20 0 0 8.954 0 20s8.954 20 20 20zm9.765-14.968c.02.021.041.042.041.083 0 .083 0 .166.166.332v.332c0 .166-.083.25-.249.333a1.564 1.564 0 01-.664.166l-2.823.083c-.166 0-.332 0-.581-.083a4.048 4.048 0 01-.581-.25l-.25-.165c-.165-.084-.414-.332-.746-.665-.333-.332-.582-.58-.748-.83a2.528 2.528 0 00-.664-.664c-.166-.166-.415-.25-.581-.166h-.083l-.166.166a1.146 1.146 0 00-.25.332 1.208 1.208 0 00-.09.294 2.663 2.663 0 01-.075.287c-.083.25-.083.498-.083.83v.332c0 .042-.02.063-.042.084-.02.02-.041.041-.041.082l-.083.084a.754.754 0 01-.581.249h-1.246c-.498.083-.996 0-1.577-.166-.498-.166-.996-.332-1.412-.582-.415-.249-.83-.498-1.162-.747a6.787 6.787 0 01-.747-.664l-.25-.249-.331-.332c-.083-.166-.332-.498-.747-.996-.26-.311-.486-.655-.721-1.01a20.977 20.977 0 00-.442-.65c-.1-.177-.216-.376-.342-.593-.292-.5-.639-1.096-.986-1.733-.498-.996-.996-1.992-1.412-2.988a.628.628 0 01-.083-.332v-.167l.083-.083c.084-.083.25-.166.582-.166h2.989c.041 0 .082.021.124.042.042.02.083.041.125.041.083 0 .166.083.166.083h.083c.083.083.166.167.249.333.083.207.166.394.249.58.083.188.166.374.249.582.166.415.332.747.415.913l.166.332c.113.34.266.604.404.842.064.11.125.215.177.32.166.333.332.582.498.748a1 1 0 00.415.415c.083.083.25.166.332.166a.543.543 0 00.224-.052.287.287 0 01.109-.031c.083 0 .083-.083.083-.083.058 0 .075-.042.11-.125.014-.034.031-.075.056-.124.083-.083.166-.25.166-.498 0-.109.015-.218.033-.34.023-.158.05-.34.05-.573v-1.329c0-.332 0-.581-.083-.83a2.368 2.368 0 01-.068-.25c-.027-.114-.047-.197-.098-.248l-.083-.166c-.166-.25-.498-.415-.914-.498-.083 0-.083-.084.083-.25.083-.166.25-.249.416-.332.332-.166 1.245-.249 2.573-.249.581 0 1.08.083 1.495.166a.394.394 0 00.166.083.432.432 0 01.166.083l.249.25c0 .041.02.103.041.165.021.063.042.125.042.167v4.151c.036.073.057.145.075.211.024.084.044.157.09.204l.25.249c0 .083.083.083.166.083 0 .083.166 0 .249-.083.054-.107.142-.18.242-.263.055-.045.114-.093.173-.152.122-.122.243-.288.397-.498l.184-.25c.25-.331.498-.747.747-1.162l.25-.494c.33-.644.648-1.267.913-1.996 0-.084 0-.084.083-.167l.083-.083h3.736c.249-.083.498-.083.664 0 .166 0 .25.083.332.166l.083.084c.166.498-.415 1.577-1.66 3.237a5.5 5.5 0 00-.476.567c-.08.102-.167.216-.271.347l-.125.16c-.504.647-.795 1.02-.872 1.251-.083.332-.083.581.166.913.045.046.097.103.157.17.163.183.394.441.757.744.996.913 1.743 1.743 2.075 2.407 0 .042.02.063.042.083z" fill="#fff"/></svg>