<svg width="41" height="39" fill="none" xmlns="http://www.w3.org/2000/svg"><path d="M40.93 15.88c-.215-1.303-1.393-2.171-3-2.171h-1.5c-.965-.109-1.18.217-1.18.977v11.289c0 1.953-1.928 4.016-4.178 4.45-7.071 1.628-14.143 3.148-21.215 4.776-.75.217-1.607.217-2.464.217-.321 0-.857-.217-.964-.543-.107-.217.214-.651.428-.868.322-.217.75-.434 1.179-.651 1.286-.434 2.678-.869 3.964-1.303 5.25-1.737 10.5-3.473 15.75-5.319 2.358-.76 3.644-2.388 3.644-4.45.107-6.513 0-13.134 0-19.647 0-1.085-.536-1.953-1.715-2.388-1.393-.542-2.678-.108-3.857.435C18.322 4.266 10.93 7.848 3.43 11.43 1.286 12.515 0 14.035 0 16.206v18.56c0 .326 0 .652.107.87C.857 37.696 2.786 39 5.357 39h31.394c1.179 0 2.143-.217 3-.977 1.072-.868 1.072-2.062 1.072-3.148V16.748c.214-.108.214-.543.107-.868zm-21.858-1.954c.536-1.411 1.714-2.28 3.429-2.496 1.178-.109 2.142.542 2.357 1.628.214 1.628-1.715 3.582-3.75 3.582-1.608 0-2.572-1.194-2.036-2.714z" fill="#E47418"/></svg>