<svg width="36" height="35" fill="none" xmlns="http://www.w3.org/2000/svg"><path fill-rule="evenodd" clip-rule="evenodd" d="M18 35c9.665 0 17.5-7.835 17.5-17.5S27.665 0 18 0 .5 7.835.5 17.5 8.335 35 18 35zm7.599-18.96c.013.182.025.352.025.509v2.602c0 .34 0 .736-.057 1.188 0 .509-.056.905-.17 1.3a2.256 2.256 0 01-.621 1.076c-.283.282-.68.452-1.075.509-1.245.17-3.224.226-5.826.226-2.602 0-4.526-.057-5.827-.226-.396-.057-.792-.227-1.075-.51-.339-.282-.509-.622-.622-1.074a77.257 77.257 0 01-.17-1.3v-.001c0-.243-.016-.469-.03-.679a6.807 6.807 0 01-.026-.509v-2.602c0-.34 0-.735.057-1.188 0-.509.056-.905.17-1.3.112-.453.339-.793.621-1.076.283-.282.68-.452 1.075-.509 1.245-.17 3.225-.226 5.827-.226s4.525.057 5.826.226c.396.057.792.226 1.075.51.339.282.509.622.622 1.074.056.396.113.849.17 1.301 0 .243.016.469.03.679zm-9.195 5.034l4.468-2.772c.17-.113.283-.395.283-.565 0-.17-.113-.34-.283-.453l-4.468-2.771a.514.514 0 00-.566 0 .594.594 0 00-.283.509v5.6c0 .226.113.396.283.509a.51.51 0 00.283.056.432.432 0 00.283-.113z" fill="#E0E0E0"/></svg>