<svg width="40" height="40" fill="none" xmlns="http://www.w3.org/2000/svg"><path fill-rule="evenodd" clip-rule="evenodd" d="M20 40c11.046 0 20-8.954 20-20S31.046 0 20 0 0 8.954 0 20s8.954 20 20 20zm8.684-21.669c.015.208.03.402.03.582v2.974c0 .388 0 .84-.066 1.357 0 .582-.064 1.035-.194 1.487a2.585 2.585 0 01-.71 1.229c-.324.323-.776.517-1.229.581-1.422.194-3.685.259-6.658.259-2.974 0-5.172-.065-6.659-.259-.453-.064-.905-.258-1.228-.581-.388-.324-.582-.712-.711-1.229-.065-.452-.13-.968-.194-1.485v-.002c0-.277-.019-.535-.036-.775a8.31 8.31 0 01-.029-.582v-2.974c0-.388 0-.84.065-1.357 0-.582.064-1.035.194-1.487a2.58 2.58 0 01.71-1.229c.324-.323.777-.517 1.229-.581 1.422-.194 3.685-.259 6.659-.259 2.973 0 5.171.065 6.658.259.453.064.905.258 1.228.581.388.324.582.712.712 1.229.064.452.129.97.194 1.487 0 .277.018.535.035.775zm-10.508 5.754l5.107-3.168c.194-.13.323-.452.323-.646s-.13-.388-.323-.518l-5.107-3.167a.587.587 0 00-.647 0 .679.679 0 00-.323.582v6.4c0 .258.13.452.323.581.13.065.194.065.323.065.13 0 .26-.064.324-.13z" fill="#fff"/></svg>