<svg width="20" height="20" viewBox="0 0 20 20" fill="none" xmlns="http://www.w3.org/2000/svg">
<g clip-path="url(#clip0)">
<path d="M10 12.5C11.3807 12.5 12.5 11.3807 12.5 10C12.5 8.61929 11.3807 7.5 10 7.5C8.61929 7.5 7.5 8.61929 7.5 10C7.5 11.3807 8.61929 12.5 10 12.5Z" fill="#5C5C5C"/>
<path d="M17.5 12.5C18.8807 12.5 20 11.3807 20 10C20 8.61929 18.8807 7.5 17.5 7.5C16.1193 7.5 15 8.61929 15 10C15 11.3807 16.1193 12.5 17.5 12.5Z" fill="#5C5C5C"/>
<path d="M2.5 12.5C3.88071 12.5 5 11.3807 5 10C5 8.61929 3.88071 7.5 2.5 7.5C1.11929 7.5 4.89256e-08 8.61929 1.09278e-07 10C1.69631e-07 11.3807 1.11929 12.5 2.5 12.5Z" fill="#5C5C5C"/>
</g>
<defs>
<clipPath id="clip0">
<rect width="20" height="20" fill="white" transform="translate(0 20) rotate(-90)"/>
</clipPath>
</defs>
</svg>
