<svg width="36" height="35" viewBox="0 0 36 35" fill="none" xmlns="http://www.w3.org/2000/svg">
<path fill-rule="evenodd" clip-rule="evenodd" d="M17.75 35C27.415 35 35.25 27.165 35.25 17.5C35.25 7.83502 27.415 0 17.75 0C8.08502 0 0.25 7.83502 0.25 17.5C0.25 27.165 8.08502 35 17.75 35ZM23.1587 9.625C24.4689 9.625 25.625 10.7811 25.625 12.0913V22.0337C25.625 23.3439 24.4689 24.5 23.1587 24.5H20.5382V18.8737H23.0045V16.4074H20.5382V15.4054C20.5382 14.943 20.7694 14.7118 21.0006 14.7118H23.0045V12.2455H21.0006C19.4592 12.2455 18.226 13.7098 18.226 15.4054V16.4074H16.3763V18.8737H18.226V24.5H13.2163C11.9061 24.5 10.75 23.3439 10.75 22.0337V12.0913C10.75 10.7811 11.9061 9.625 13.2163 9.625H23.1587Z" fill="#E0E0E0"/>
</svg>
