<svg width="26" height="23" viewBox="0 0 26 23" fill="none" xmlns="http://www.w3.org/2000/svg">
<path d="M22.9527 3.1883C22.3781 2.61343 21.6959 2.15741 20.945 1.84627C20.1941 1.53514 19.3893 1.375 18.5765 1.375C17.7637 1.375 16.9588 1.53514 16.2079 1.84627C15.457 2.15741 14.7748 2.61343 14.2002 3.1883L13.0077 4.3808L11.8152 3.1883C10.6546 2.02765 9.08037 1.3756 7.43895 1.3756C5.79754 1.3756 4.22336 2.02765 3.0627 3.1883C1.90205 4.34896 1.25 5.92314 1.25 7.56455C1.25 9.20597 1.90205 10.7802 3.0627 11.9408L4.2552 13.1333L13.0077 21.8858L21.7602 13.1333L22.9527 11.9408C23.5276 11.3662 23.9836 10.684 24.2947 9.93308C24.6059 9.18219 24.766 8.37735 24.766 7.56455C24.766 6.75176 24.6059 5.94692 24.2947 5.19603C23.9836 4.44514 23.5276 3.7629 22.9527 3.1883V3.1883Z" stroke="white" stroke-width="2" stroke-linecap="round" stroke-linejoin="round"/>
</svg>
