<svg width="36" height="35" viewBox="0 0 36 35" fill="none" xmlns="http://www.w3.org/2000/svg">
<path fill-rule="evenodd" clip-rule="evenodd" d="M18.25 35C27.915 35 35.75 27.165 35.75 17.5C35.75 7.83502 27.915 0 18.25 0C8.58502 0 0.75 7.83502 0.75 17.5C0.75 27.165 8.58502 35 18.25 35ZM13.3668 10.5H24.0082C25.2096 10.5 26.125 11.4154 26.125 12.6168V23.2582C26.125 24.4596 25.2096 25.375 24.0082 25.375H13.3668C12.1654 25.375 11.25 24.4596 11.25 23.2582V12.6168C11.25 11.4154 12.1654 10.5 13.3668 10.5ZM23.15 18.1091C23.15 20.4548 21.1476 22.4 18.6875 22.4C16.2274 22.4 14.225 20.4548 14.2822 18.0519C14.2822 17.6514 14.3394 17.251 14.4538 16.8505H13.138V22.9721C13.138 23.3154 13.424 23.5442 13.7101 23.5442H23.6649C24.0082 23.5442 24.237 23.2582 24.237 22.9721V16.9077H22.9784C23.0928 17.251 23.15 17.7087 23.15 18.1091ZM15.8269 17.8803C15.8269 19.425 17.0856 20.6837 18.6875 20.6837C20.2894 20.6837 21.5481 19.4822 21.5481 17.8803C21.5481 16.3356 20.2894 15.0769 18.6875 15.0769C17.0856 15.0769 15.8269 16.3356 15.8269 17.8803ZM23.5505 15.1913C23.8937 15.1913 24.1798 14.9053 24.1798 14.562V13.0173C24.1798 12.674 23.8937 12.388 23.5505 12.388H21.9486C21.6053 12.388 21.3192 12.674 21.3192 13.0173V14.562C21.3192 14.9053 21.6053 15.1913 21.9486 15.1913H23.5505Z" fill="#E0E0E0"/>
</svg>
