<svg width="17" height="21" viewBox="0 0 17 21" fill="none" xmlns="http://www.w3.org/2000/svg">
<path d="M15.925 8.85005C15.925 14.625 8.50001 19.575 8.50001 19.575C8.50001 19.575 1.07501 14.625 1.07501 8.85005C1.07501 6.88082 1.85729 4.99224 3.24974 3.59978C4.6422 2.20732 6.53078 1.42505 8.50001 1.42505C10.4692 1.42505 12.3578 2.20732 13.7503 3.59978C15.1427 4.99224 15.925 6.88082 15.925 8.85005Z" stroke="#D9731F" stroke-width="2" stroke-linecap="round" stroke-linejoin="round"/>
<path d="M8.50001 11.325C9.86692 11.325 10.975 10.217 10.975 8.85005C10.975 7.48314 9.86692 6.37505 8.50001 6.37505C7.13311 6.37505 6.02501 7.48314 6.02501 8.85005C6.02501 10.217 7.13311 11.325 8.50001 11.325Z" stroke="#D9731F" stroke-width="2" stroke-linecap="round" stroke-linejoin="round"/>
</svg>
