<svg width="180" height="27" viewBox="0 0 180 27" fill="none" xmlns="http://www.w3.org/2000/svg">
<path d="M12.3919 18.0483C12.3919 17.1789 12.0882 16.5142 11.4807 16.0539C10.8733 15.5835 9.77988 15.0926 8.20052 14.5812C6.62116 14.0596 5.37084 13.5483 4.44954 13.0471C1.93877 11.6767 0.683377 9.83065 0.683377 7.50906C0.683377 6.30224 1.01747 5.22838 1.68566 4.28747C2.36398 3.33633 3.33083 2.59485 4.58622 2.06304C5.85173 1.53122 7.2691 1.26531 8.83834 1.26531C10.4177 1.26531 11.825 1.55679 13.0601 2.13974C14.2952 2.71247 15.252 3.52554 15.9303 4.57894C16.6187 5.63235 16.9629 6.82894 16.9629 8.16872H12.4071C12.4071 7.14599 12.0882 6.35338 11.4504 5.79088C10.8125 5.21815 9.91656 4.93178 8.76241 4.93178C7.64876 4.93178 6.78315 5.17213 6.16558 5.65281C5.54801 6.12326 5.23922 6.74713 5.23922 7.5244C5.23922 8.25054 5.59863 8.85906 6.31744 9.34997C7.04637 9.84088 8.11447 10.3011 9.52172 10.7306C12.1135 11.5181 14.0016 12.4949 15.1862 13.6608C16.3707 14.8267 16.9629 16.2789 16.9629 18.0176C16.9629 19.9505 16.2391 21.4693 14.7913 22.5738C13.3436 23.6681 11.3947 24.2153 8.94464 24.2153C7.24379 24.2153 5.69481 23.9034 4.29768 23.2795C2.90055 22.6454 1.83246 21.7812 1.0934 20.6869C0.364468 19.5926 0 18.3244 0 16.8824H4.57103C4.57103 19.3471 6.0289 20.5795 8.94464 20.5795C10.0279 20.5795 10.8733 20.3596 11.4807 19.9199C12.0882 19.4699 12.3919 18.846 12.3919 18.0483Z" fill="white"/>
<path d="M28.2462 15.7318H24.6168V23.9085H20.0609V1.57213H28.2766C30.8886 1.57213 32.9033 2.16019 34.3207 3.33633C35.7381 4.51247 36.4468 6.1744 36.4468 8.32213C36.4468 9.84599 36.1177 11.1193 35.4597 12.142C34.8117 13.1545 33.8246 13.9625 32.4984 14.5659L37.282 23.6937V23.9085H32.3921L28.2462 15.7318ZM24.6168 12.0039H28.2918C29.4358 12.0039 30.3217 11.7125 30.9494 11.1295C31.5771 10.5363 31.8909 9.72326 31.8909 8.69031C31.8909 7.6369 31.5923 6.80849 30.9949 6.20508C30.4077 5.60167 29.5016 5.29997 28.2766 5.29997H24.6168V12.0039Z" fill="white"/>
<path d="M43.064 0H41.6061V27H43.064V0Z" fill="white"/>
<path d="M54.4062 15.6999C54.4062 15.2032 54.2326 14.8233 53.8855 14.5603C53.5384 14.2915 52.9136 14.011 52.0111 13.7188C51.1086 13.4207 50.3942 13.1285 49.8677 12.8421C48.433 12.059 47.7156 11.0042 47.7156 9.67754C47.7156 8.98793 47.9065 8.37429 48.2883 7.83663C48.676 7.29312 49.2284 6.86942 49.9458 6.56552C50.669 6.26163 51.4789 6.10968 52.3756 6.10968C53.2781 6.10968 54.0822 6.27624 54.788 6.60935C55.4938 6.93663 56.0405 7.40124 56.4281 8.00319C56.8215 8.60513 57.0182 9.2889 57.0182 10.0545H54.4149C54.4149 9.47007 54.2326 9.01715 53.8682 8.69572C53.5037 8.36845 52.9917 8.20481 52.3322 8.20481C51.6958 8.20481 51.2012 8.34215 50.8483 8.61682C50.4954 8.88565 50.319 9.24215 50.319 9.6863C50.319 10.1012 50.5243 10.449 50.9351 10.7295C51.3516 11.01 51.9619 11.273 52.7661 11.5184C54.2471 11.9684 55.326 12.5266 56.0029 13.1928C56.6798 13.859 57.0182 14.6889 57.0182 15.6824C57.0182 16.787 56.6046 17.6548 55.7773 18.286C54.95 18.9113 53.8364 19.224 52.4363 19.224C51.4644 19.224 50.5793 19.0457 49.7809 18.6892C48.9826 18.3269 48.3722 17.8331 47.9499 17.2077C47.5334 16.5824 47.3251 15.8577 47.3251 15.0337H49.9371C49.9371 16.4421 50.7702 17.1464 52.4363 17.1464C53.0554 17.1464 53.5384 17.0207 53.8855 16.7694C54.2326 16.5123 54.4062 16.1558 54.4062 15.6999Z" fill="white"/>
<path d="M69.063 19.0486H66.4597L61.3918 10.6506V19.0486H58.7885V6.285H61.3918L66.4683 14.7006V6.285H69.063V19.0486Z" fill="white"/>
<path d="M74.1048 19.0486H71.5015V6.285H74.1048V19.0486Z" fill="white"/>
<path d="M79.1292 14.5516V19.0486H76.5259V6.285H81.4549C82.4037 6.285 83.2367 6.46033 83.9541 6.81098C84.6773 7.16163 85.2326 7.6613 85.6202 8.31C86.0079 8.95286 86.2017 9.6863 86.2017 10.5103C86.2017 11.761 85.7764 12.7486 84.926 13.4733C84.0814 14.1921 82.9099 14.5516 81.4115 14.5516H79.1292ZM79.1292 12.4214H81.4549C82.1433 12.4214 82.6669 12.2577 83.0256 11.9305C83.3901 11.6032 83.5723 11.1357 83.5723 10.5279C83.5723 9.90254 83.3901 9.39702 83.0256 9.0113C82.6611 8.62559 82.1578 8.42689 81.5156 8.4152H79.1292V12.4214Z" fill="white"/>
<path d="M95.5997 13.5171H90.6013V16.936H96.4675V19.0486H87.998V6.285H96.4501V8.4152H90.6013V11.4571H95.5997V13.5171Z" fill="white"/>
<path d="M102.672 14.3762H100.598V19.0486H97.9948V6.285H102.689C104.182 6.285 105.333 6.62104 106.143 7.29312C106.953 7.9652 107.358 8.91487 107.358 10.1421C107.358 11.0129 107.17 11.7405 106.794 12.3249C106.424 12.9035 105.86 13.3652 105.102 13.71L107.835 18.9259V19.0486H105.041L102.672 14.3762ZM100.598 12.246H102.698C103.352 12.246 103.858 12.0795 104.217 11.7464C104.575 11.4074 104.755 10.9428 104.755 10.3525C104.755 9.75059 104.584 9.27721 104.243 8.93241C103.907 8.5876 103.389 8.4152 102.689 8.4152H100.598V12.246Z" fill="white"/>
<path d="M115.897 15.6999C115.897 15.2032 115.724 14.8233 115.376 14.5603C115.029 14.2915 114.405 14.011 113.502 13.7188C112.6 13.4207 111.885 13.1285 111.359 12.8421C109.924 12.059 109.207 11.0042 109.207 9.67754C109.207 8.98793 109.397 8.37429 109.779 7.83663C110.167 7.29312 110.719 6.86942 111.437 6.56552C112.16 6.26163 112.97 6.10968 113.866 6.10968C114.769 6.10968 115.573 6.27624 116.279 6.60935C116.985 6.93663 117.531 7.40124 117.919 8.00319C118.312 8.60513 118.509 9.2889 118.509 10.0545H115.906C115.906 9.47007 115.724 9.01715 115.359 8.69572C114.995 8.36845 114.483 8.20481 113.823 8.20481C113.187 8.20481 112.692 8.34215 112.339 8.61682C111.986 8.88565 111.81 9.24215 111.81 9.6863C111.81 10.1012 112.015 10.449 112.426 10.7295C112.843 11.01 113.453 11.273 114.257 11.5184C115.738 11.9684 116.817 12.5266 117.494 13.1928C118.171 13.859 118.509 14.6889 118.509 15.6824C118.509 16.787 118.095 17.6548 117.268 18.286C116.441 18.9113 115.327 19.224 113.927 19.224C112.955 19.224 112.07 19.0457 111.272 18.6892C110.473 18.3269 109.863 17.8331 109.441 17.2077C109.024 16.5824 108.816 15.8577 108.816 15.0337H111.428C111.428 16.4421 112.261 17.1464 113.927 17.1464C114.546 17.1464 115.029 17.0207 115.376 16.7694C115.724 16.5123 115.897 16.1558 115.897 15.6999Z" fill="white"/>
<path d="M122.883 14.5516V19.0486H120.279V6.285H125.208C126.157 6.285 126.99 6.46033 127.708 6.81098C128.431 7.16163 128.986 7.6613 129.374 8.31C129.761 8.95286 129.955 9.6863 129.955 10.5103C129.955 11.761 129.53 12.7486 128.679 13.4733C127.835 14.1921 126.663 14.5516 125.165 14.5516H122.883ZM122.883 12.4214H125.208C125.897 12.4214 126.42 12.2577 126.779 11.9305C127.144 11.6032 127.326 11.1357 127.326 10.5279C127.326 9.90254 127.144 9.39702 126.779 9.0113C126.415 8.62559 125.911 8.42689 125.269 8.4152H122.883V12.4214Z" fill="white"/>
<path d="M134.52 19.0486H131.916V6.285H134.52V19.0486Z" fill="white"/>
<path d="M147.215 19.0486H144.612L139.544 10.6506V19.0486H136.941V6.285H139.544L144.621 14.7006V6.285H147.215V19.0486Z" fill="white"/>
<path d="M149.454 17.8038C149.454 17.4006 149.587 17.0733 149.853 16.822C150.125 16.5707 150.464 16.4451 150.869 16.4451C151.279 16.4451 151.618 16.5707 151.884 16.822C152.156 17.0733 152.292 17.4006 152.292 17.8038C152.292 18.2012 152.159 18.5256 151.893 18.7769C151.626 19.0223 151.285 19.1451 150.869 19.1451C150.458 19.1451 150.119 19.0223 149.853 18.7769C149.587 18.5256 149.454 18.2012 149.454 17.8038Z" fill="white"/>
<path d="M163.764 14.3762H161.69V19.0486H159.087V6.285H163.781C165.274 6.285 166.425 6.62104 167.235 7.29312C168.045 7.9652 168.45 8.91487 168.45 10.1421C168.45 11.0129 168.262 11.7405 167.886 12.3249C167.516 12.9035 166.951 13.3652 166.194 13.71L168.927 18.9259V19.0486H166.133L163.764 14.3762ZM161.69 12.246H163.79C164.444 12.246 164.95 12.0795 165.308 11.7464C165.667 11.4074 165.847 10.9428 165.847 10.3525C165.847 9.75059 165.676 9.27721 165.335 8.93241C164.999 8.5876 164.481 8.4152 163.781 8.4152H161.69V12.246Z" fill="white"/>
<path d="M180 6.285V14.6918C180 16.0886 179.566 17.1931 178.698 18.0055C177.836 18.8178 176.656 19.224 175.158 19.224C173.683 19.224 172.511 18.8295 171.643 18.0405C170.776 17.2516 170.333 16.1675 170.316 14.7883V6.285H172.919V14.7094C172.919 15.5451 173.116 16.1558 173.509 16.5415C173.908 16.9214 174.458 17.1113 175.158 17.1113C176.621 17.1113 177.365 16.334 177.388 14.7795V6.285H180Z" fill="white"/>
</svg>
