<svg width="65" height="39" viewBox="0 0 65 39" fill="none" xmlns="http://www.w3.org/2000/svg">
<path d="M32.2615 33.5513C36.1249 29.9929 38.565 24.9094 38.565 19.3176C38.565 13.6241 36.1249 8.54062 32.2615 5.08386C28.8047 2.03377 24.3312 0.102051 19.3494 0.102051C8.67413 0.102051 0.0322266 8.74396 0.0322266 19.3176C0.0322266 29.9929 8.67413 38.6348 19.3494 38.6348C24.3312 38.5331 28.8047 36.6014 32.2615 33.5513Z" fill="#3362AB"/>
<path d="M32.2615 33.5507C36.1249 29.9923 38.565 24.9088 38.565 19.317C38.565 13.6235 36.1249 8.54001 32.2615 5.08325" fill="#3362AB"/>
<path d="M32.2615 33.5507C36.1249 29.9923 38.565 24.9088 38.565 19.317C38.565 13.6235 36.1249 8.54001 32.2615 5.08325" stroke="#3362AB" stroke-width="0.3097"/>
<path d="M45.1735 0C40.1917 0 35.6165 1.93171 32.2614 4.9818C31.5497 5.59182 30.9397 6.3035 30.3297 7.01519H34.1931C34.7015 7.62521 35.2098 8.33689 35.6165 9.04858H28.8047C28.398 9.6586 27.9913 10.3703 27.6863 11.082H36.7349C37.0399 11.7937 37.3449 12.4037 37.5483 13.1154H26.873C26.6696 13.827 26.4663 14.4371 26.2629 15.1487H38.0566C38.3616 16.4705 38.4633 17.7922 38.4633 19.2155C38.4633 21.3506 38.1583 23.384 37.4466 25.3157H26.7713C26.9746 26.0274 27.2796 26.7391 27.5846 27.3491H36.6332C36.3282 28.0608 35.9215 28.7725 35.5149 29.3825H28.703C29.1097 30.0942 29.618 30.8058 30.1264 31.4159H33.9898C33.3798 32.1276 32.7698 32.8392 32.0581 33.4493C35.5148 36.4993 39.9883 38.4311 44.9701 38.4311C55.6454 38.4311 64.1856 29.7892 64.1856 19.1139C64.4907 8.64191 55.8488 0 45.1735 0Z" fill="#C9191B"/>
<path d="M16.9093 23.9939H14.4693L15.8926 16.4704L12.6392 23.9939H10.5042L10.0975 16.572L8.6741 23.9939H6.53906L8.3691 14.2336H12.1309L12.3342 20.3338L14.9776 14.2336H18.841L16.9093 23.9939Z" fill="white"/>
<path d="M43.7502 23.9943C43.1401 24.1976 42.5301 24.2993 42.0218 24.2993C40.8018 24.2993 40.0901 23.6893 40.0901 22.5709C40.0901 22.3676 40.0901 22.0626 40.1917 21.8592L40.2934 21.0459L40.3951 20.4359L41.5135 14.3357H43.8518L43.5468 16.1657H44.7669L44.4619 18.0975H43.2418L42.6318 21.4526C42.6318 21.5542 42.6318 21.7576 42.6318 21.7576C42.6318 22.1642 42.9368 22.3676 43.4452 22.3676C43.7502 22.3676 43.9535 22.3676 44.0552 22.2659L43.7502 23.9943Z" fill="white"/>
<path d="M50.6636 16.1654C50.4603 16.0637 50.4603 16.0637 50.3586 16.0637C50.2569 16.0637 50.1553 16.0637 50.1553 16.0637C50.0536 16.0637 49.9519 16.0637 49.8503 16.0637C49.0369 16.0637 48.5286 16.3687 47.7152 17.3854L47.9186 16.1654H45.9868L44.5635 24.0956H47.0035C47.8169 19.2155 48.2236 18.4021 49.3419 18.4021C49.4436 18.4021 49.5453 18.4021 49.647 18.4021L49.9519 18.5038L50.6636 16.1654Z" fill="white"/>
<path d="M34.1931 18.6058C34.1931 19.6225 34.8031 20.3342 36.0232 20.8425C37.0399 21.2492 37.1415 21.3509 37.1415 21.7576C37.1415 22.2659 36.7348 22.4692 35.7181 22.4692C35.0065 22.4692 34.2948 22.3676 33.5831 22.1642L33.2781 23.9943H33.3798L33.7864 24.096C33.8881 24.096 34.1931 24.1976 34.3964 24.1976C35.0065 24.1976 35.4131 24.2993 35.7181 24.2993C38.2599 24.2993 39.4799 23.486 39.4799 21.6559C39.4799 20.5375 38.9716 19.9275 37.7515 19.4192C36.7348 19.0125 36.6332 18.9108 36.6332 18.5041C36.6332 18.0975 37.0398 17.8941 37.8532 17.8941C38.3616 17.8941 38.9716 17.8941 39.5816 17.9958L39.8866 16.1657C39.2766 16.0641 38.3615 15.9624 37.7515 15.9624C35.1081 15.9624 34.1931 17.1824 34.1931 18.6058Z" fill="white"/>
<path d="M23.0095 20.5375C22.7045 20.5375 22.6028 20.5375 22.5012 20.5375C21.1795 20.5375 20.4678 20.9442 20.4678 21.7576C20.4678 22.2659 20.7728 22.5709 21.2812 22.5709C22.1962 22.4692 22.9078 21.6559 23.0095 20.5375ZM24.7379 23.9943H22.7045L22.8062 23.1809C22.1962 23.791 21.3828 24.096 20.2645 24.096C18.9428 24.096 18.1294 23.1809 18.1294 21.9609C18.1294 20.0292 19.6544 18.9108 22.2978 18.9108C22.6029 18.9108 22.9079 18.9108 23.3145 19.0125C23.4162 18.7075 23.4162 18.6058 23.4162 18.5041C23.4162 17.9958 23.0095 17.7925 21.8911 17.7925C21.1795 17.7925 20.4678 17.8941 19.9594 17.9958L19.6544 18.0975L19.4511 18.1991L19.7561 16.3691C20.9761 16.0641 21.6878 15.9624 22.6028 15.9624C24.6362 15.9624 25.7546 16.7758 25.7546 18.3008C25.7546 18.7075 25.7546 19.0125 25.5513 19.8258L25.0429 22.6726L24.9412 23.1809L24.8396 23.5876V23.8926L24.7379 23.9943Z" fill="white"/>
<path d="M31.3464 19.1138C31.3464 18.9104 31.3464 18.8088 31.3464 18.7071C31.3464 18.0971 30.9397 17.6904 30.228 17.6904C29.4147 17.6904 28.9063 18.1988 28.703 19.1138H31.3464ZM32.5664 23.8923C31.7531 24.0956 30.9397 24.1973 30.1263 24.1973C27.4829 24.1973 26.0596 22.9772 26.0596 20.6388C26.0596 17.8938 27.788 15.8604 30.228 15.8604C32.1597 15.8604 33.4815 16.9787 33.4815 18.7071C33.4815 19.3171 33.3798 19.8255 33.1764 20.6388H28.398C28.398 20.7405 28.398 20.8422 28.398 20.8422C28.398 21.7572 29.1096 22.2655 30.533 22.2655C31.3464 22.2655 32.1597 22.0622 33.0748 21.7572L32.5664 23.8923Z" fill="white"/>
<path d="M55.6454 19.4192C55.6454 18.6058 55.3404 17.7925 54.3237 17.7925C53.1036 17.7925 52.3919 19.2158 52.3919 20.5375C52.3919 21.6559 52.9003 22.3676 53.8153 22.3676C54.3237 22.3676 55.442 21.6559 55.6454 20.4359C55.6454 20.1308 55.6454 19.7242 55.6454 19.4192ZM58.1871 20.4359C57.7804 23.0793 55.9504 24.2993 53.5103 24.2993C50.7652 24.2993 49.7485 22.6726 49.7485 20.6392C49.7485 17.7925 51.5786 15.9624 54.4253 15.9624C56.967 15.9624 58.1871 17.4874 58.1871 19.5208C58.2888 19.9275 58.2888 19.9275 58.1871 20.4359Z" fill="white"/>
</svg>
