<svg width="66" height="39" viewBox="0 0 66 39" fill="none" xmlns="http://www.w3.org/2000/svg">
<path d="M65.9033 19.5C65.9033 30.2 57.2033 39 46.4033 39C35.7033 39 26.9033 30.2 26.9033 19.5C26.9033 8.8 35.6033 0 46.3033 0C57.2033 0 65.9033 8.8 65.9033 19.5Z" fill="#F9B50B"/>
<path d="M39.8033 19.6C39.8033 18.2 39.6033 16.8 39.4033 15.5H27.4033C27.5033 14.8 27.7033 14.2 27.9033 13.4H38.6033C38.4033 12.7 38.1033 12 37.8033 11.3H28.7033C29.0033 10.6 29.4033 10 29.8033 9.2H36.7033C36.3033 8.5 35.8033 7.8 35.2033 7.1H31.4033C32.0033 6.4 32.6033 5.8 33.4033 5.1C30.0033 1.9 25.4033 0 20.3033 0C9.70332 0.3 0.90332 8.8 0.90332 19.5C0.90332 30.2 9.60332 39 20.4033 39C25.5033 39 30.0033 37 33.5033 33.9C34.2033 33.3 34.8033 32.6 35.5033 31.8H31.5033C31.0033 31.2 30.5033 30.5 30.1033 29.8H36.9033C37.3033 29.2 37.7033 28.5 38.0033 27.7H28.9033C28.6033 27.1 28.3033 26.4 28.1033 25.6H38.8033C39.4033 23.8 39.8033 21.8 39.8033 19.6Z" fill="#C8191C"/>
<path d="M27.3035 24.5001L27.6035 22.7001C27.5035 22.7001 27.3035 22.8001 27.1035 22.8001C26.4035 22.8001 26.3035 22.4001 26.4035 22.2001L27.0035 18.6001H28.1035L28.4035 16.6001H27.4035L27.6035 15.4001H25.5035C25.5035 15.4001 24.3035 22.2001 24.3035 23.0001C24.3035 24.2001 25.0035 24.8001 26.0035 24.8001C26.6035 24.8001 27.1035 24.6001 27.3035 24.5001Z" fill="white"/>
<path d="M28.0032 21.1999C28.0032 24.0999 30.0032 24.7999 31.6032 24.7999C33.1032 24.7999 33.8032 24.4999 33.8032 24.4999L34.2032 22.4999C34.2032 22.4999 33.1032 22.9999 32.0032 22.9999C29.7032 22.9999 30.1032 21.2999 30.1032 21.2999H34.3032C34.3032 21.2999 34.6032 19.9999 34.6032 19.3999C34.6032 18.0999 33.9032 16.3999 31.6032 16.3999C29.6032 16.2999 28.0032 18.5999 28.0032 21.1999ZM31.6032 18.1999C32.7032 18.1999 32.5032 19.4999 32.5032 19.5999H30.2032C30.3032 19.4999 30.5032 18.1999 31.6032 18.1999Z" fill="white"/>
<path d="M44.7034 24.5001L45.1034 22.2001C45.1034 22.2001 44.1034 22.7001 43.3034 22.7001C41.9034 22.7001 41.2034 21.6001 41.2034 20.3001C41.2034 17.8001 42.4034 16.5001 43.9034 16.5001C44.9034 16.5001 45.8034 17.1001 45.8034 17.1001L46.1034 14.9001C46.1034 14.9001 44.9034 14.4001 43.7034 14.4001C41.3034 14.4001 39.0034 16.5001 39.0034 20.4001C39.0034 23.0001 40.2034 24.7001 42.7034 24.7001C43.6034 24.8001 44.7034 24.5001 44.7034 24.5001Z" fill="white"/>
<path d="M16.0033 16.3C14.6033 16.3 13.5033 16.7001 13.5033 16.7001L13.2033 18.5C13.2033 18.5 14.1033 18.1 15.5033 18.1C16.2033 18.1 16.8033 18.2 16.8033 18.8C16.8033 19.2 16.7033 19.3 16.7033 19.3H15.8033C14.0033 19.3 12.1033 20 12.1033 22.4C12.1033 24.3 13.3033 24.7001 14.1033 24.7001C15.5033 24.7001 16.2033 23.8 16.3033 23.8L16.2033 24.6H17.9033L18.7033 18.9C18.7033 16.4 16.7033 16.3 16.0033 16.3ZM16.4033 20.9C16.4033 21.2 16.2033 22.9 15.0033 22.9C14.4033 22.9 14.2033 22.4001 14.2033 22.1C14.2033 21.6 14.5033 20.9 16.1033 20.9C16.3033 20.9 16.4033 20.9 16.4033 20.9Z" fill="white"/>
<path d="M20.7034 24.7C21.2034 24.7 23.8034 24.8 23.8034 22C23.8034 19.4 21.3034 19.9 21.3034 18.9C21.3034 18.4 21.7034 18.2 22.4034 18.2C22.7034 18.2 23.8034 18.2999 23.8034 18.2999L24.1034 16.4C24.1034 16.4 23.4034 16.2 22.1034 16.2C20.6034 16.2 19.0034 16.8 19.0034 18.9C19.0034 21.3 21.6034 21.1 21.6034 22C21.6034 22.6 20.9034 22.7 20.4034 22.7C19.5034 22.7 18.5034 22.4 18.5034 22.4L18.2034 24.2999C18.4034 24.4999 19.0034 24.7 20.7034 24.7Z" fill="white"/>
<path d="M61.9032 14.7004L61.5032 17.5004C61.5032 17.5004 60.7032 16.5004 59.5032 16.5004C57.6032 16.5004 56.0032 18.8004 56.0032 21.5004C56.0032 23.2004 56.8032 24.9004 58.6032 24.9004C59.8032 24.9004 60.6032 24.1004 60.6032 24.1004L60.5032 24.8004H62.6032L64.1032 14.9004L61.9032 14.7004ZM60.9032 20.1004C60.9032 21.2004 60.4032 22.7004 59.2032 22.7004C58.5032 22.7004 58.1032 22.1004 58.1032 21.0004C58.1032 19.3004 58.8032 18.3004 59.8032 18.3004C60.5032 18.4004 60.9032 18.9004 60.9032 20.1004Z" fill="white"/>
<path d="M4.70337 24.6004L5.90337 17.2004L6.10337 24.6004H7.50337L10.2034 17.2004L9.10337 24.6004H11.3034L13.0034 14.7004H9.60337L7.50337 20.8004L7.40337 14.7004H4.40337L2.70337 24.6004H4.70337Z" fill="white"/>
<path d="M36.7033 24.5998C37.3033 21.1998 37.4033 18.3998 38.9033 18.8998C39.1033 17.5998 39.4033 16.9998 39.6033 16.4998H39.2033C38.3033 16.4998 37.5033 17.6998 37.5033 17.6998L37.7033 16.5998H35.7033L34.4033 24.5998H36.7033Z" fill="white"/>
<path d="M49.5033 16.3C48.1033 16.3 47.0033 16.7001 47.0033 16.7001L46.7033 18.5C46.7033 18.5 47.6033 18.1 49.0033 18.1C49.7033 18.1 50.3033 18.2 50.3033 18.8C50.3033 19.2 50.2033 19.3 50.2033 19.3H49.3033C47.5033 19.3 45.6033 20 45.6033 22.4C45.6033 24.3 46.8033 24.7001 47.6033 24.7001C49.0033 24.7001 49.7033 23.8 49.8033 23.8L49.7033 24.6H51.6033L52.4033 18.9C52.4033 16.4 50.2033 16.3 49.5033 16.3ZM50.0033 20.9C50.0033 21.2 49.8033 22.9 48.6033 22.9C48.0033 22.9 47.8033 22.4001 47.8033 22.1C47.8033 21.6 48.1033 20.9 49.7033 20.9C49.9033 20.9 49.9033 20.9 50.0033 20.9Z" fill="white"/>
<path d="M54.0036 24.5998C54.6036 21.1998 54.7036 18.3998 56.2036 18.8998C56.4036 17.5998 56.7036 16.9998 56.9036 16.4998H56.5036C55.6036 16.4998 54.8036 17.6998 54.8036 17.6998L55.0036 16.5998H53.0036L51.7036 24.5998H54.0036Z" fill="white"/>
</svg>
