<svg width="92" height="23" viewBox="0 0 92 23" fill="none" xmlns="http://www.w3.org/2000/svg">
<path d="M35.1102 9.69393C34.8725 11.477 33.446 11.477 32.1384 11.477H31.4251L32.0195 8.02969C32.0195 7.79194 32.2572 7.67307 32.495 7.67307H32.8516C33.8026 7.67307 34.6347 7.67307 35.1102 8.14857C35.1102 8.62406 35.1102 9.09956 35.1102 9.69393ZM34.5159 4.93896H29.4043C29.0477 4.93896 28.8099 5.17671 28.691 5.53334L26.6702 18.6095C26.6702 18.8472 26.7891 19.085 27.1457 19.085H29.5232C29.8798 19.085 30.1175 18.8472 30.2364 18.4906L30.8308 14.9244C30.8308 14.5678 31.1874 14.33 31.544 14.33H33.2082C36.5367 14.33 38.4387 12.6658 39.0331 9.45618C39.2708 8.02969 39.0331 6.95982 38.4387 6.12771C37.4877 5.41446 36.1801 4.93896 34.5159 4.93896Z" fill="#263577"/>
<path d="M46.2844 14.4485C46.0466 15.875 44.9768 16.826 43.5503 16.826C42.8371 16.826 42.2427 16.5883 41.8861 16.1128C41.5295 15.6373 41.4106 15.0429 41.5294 14.4485C41.7672 13.022 42.8371 12.071 44.2636 12.071C44.9768 12.071 45.5712 12.3088 45.9278 12.7843C46.1655 13.1409 46.4033 13.7353 46.2844 14.4485ZM49.6129 9.69356H47.2354C46.9977 9.69356 46.8788 9.81243 46.7599 10.0502L46.641 10.7634L46.5222 10.5257C46.0467 9.81243 44.8579 9.45581 43.6692 9.45581C40.9351 9.45581 38.6765 11.4767 38.201 14.3297C37.9632 15.7561 38.3198 17.0638 39.1519 18.0147C39.8652 18.8469 40.9351 19.2035 42.2427 19.2035C44.3824 19.2035 45.5711 17.777 45.5711 17.777L45.4523 18.4902C45.4523 18.728 45.5712 18.9657 45.9278 18.9657H48.0675C48.4241 18.9657 48.6619 18.728 48.7808 18.3714L50.0884 10.0502C50.0884 9.93131 49.9695 9.69356 49.6129 9.69356Z" fill="#263577"/>
<path d="M62.57 9.69409H60.0737C59.8359 9.69409 59.5982 9.81297 59.4793 10.0507L56.1508 15.0434L54.7243 10.2885C54.6054 9.93184 54.3677 9.81296 54.0111 9.81296H51.6336C51.3958 9.81296 51.1581 10.0507 51.277 10.4073L54.0111 18.253L51.5147 21.8193C51.277 22.057 51.5147 22.5325 51.8714 22.5325H54.3677C54.6055 22.5325 54.8432 22.4136 54.9621 22.1759L63.0455 10.4073C63.1644 10.0507 62.9266 9.69409 62.57 9.69409Z" fill="#263577"/>
<path d="M71.2479 9.69393C71.0102 11.477 69.5837 11.477 68.2761 11.477H67.5628L68.1572 8.02969C68.1572 7.79194 68.395 7.67307 68.6327 7.67307H68.9893C69.9403 7.67307 70.7724 7.67307 71.2479 8.14857C71.3668 8.62406 71.3668 9.09956 71.2479 9.69393ZM70.6536 4.93896H65.542C65.1854 4.93896 64.9476 5.17671 64.8287 5.53334L62.8079 18.6095C62.8079 18.8472 62.9268 19.085 63.2834 19.085H65.8986C66.1363 19.085 66.3741 18.9661 66.3741 18.6095L66.9685 14.9244C66.9685 14.5678 67.3251 14.33 67.6817 14.33H69.3459C72.6744 14.33 74.5764 12.6658 75.1708 9.45618C75.4085 8.02969 75.1708 6.95982 74.5764 6.12771C73.7443 5.41446 72.4367 4.93896 70.6536 4.93896Z" fill="#2199D6"/>
<path d="M82.541 14.4485C82.3032 15.875 81.2334 16.826 79.8069 16.826C79.0937 16.826 78.4993 16.5883 78.1427 16.1128C77.786 15.6373 77.6671 15.0429 77.786 14.4485C78.0238 13.022 79.0937 12.071 80.5201 12.071C81.2334 12.071 81.8278 12.3088 82.1844 12.7843C82.4221 13.1409 82.6599 13.7353 82.541 14.4485ZM85.8695 9.69356H83.492C83.2543 9.69356 83.1353 9.81243 83.0165 10.0502L82.8976 10.7634L82.7787 10.5257C82.3033 9.81243 81.1145 9.45581 79.9258 9.45581C77.1917 9.45581 74.9331 11.4767 74.4576 14.3297C74.2198 15.7561 74.5764 17.0638 75.4085 18.0147C76.1218 18.8469 77.1917 19.2035 78.4993 19.2035C80.639 19.2035 81.8277 17.777 81.8277 17.777L81.7089 18.4902C81.7089 18.728 81.8278 18.9657 82.1844 18.9657H84.3241C84.6807 18.9657 84.9185 18.728 85.0373 18.3714L86.345 10.0502C86.345 9.93131 86.1072 9.69356 85.8695 9.69356Z" fill="#2199D6"/>
<path d="M88.7223 5.29559L86.5825 18.6095C86.5825 18.8472 86.7014 19.085 87.058 19.085H89.1978C89.5544 19.085 89.7921 18.8472 89.911 18.4906L91.9319 5.41446C91.9319 5.17671 91.813 4.93896 91.4564 4.93896H89.0789C88.96 4.93896 88.8411 5.17671 88.7223 5.29559Z" fill="#2199D6"/>
<path d="M5.51037 21.5813L5.86698 19.0849H5.03486H0.874268L3.72726 0.897193C3.72726 0.897193 3.72725 0.77832 3.84612 0.77832H3.965H10.9786C13.2372 0.77832 14.9014 1.25382 15.7335 2.20481C16.0902 2.68031 16.3279 3.1558 16.4468 3.6313C16.5657 4.22567 16.5657 4.82004 16.4468 5.65216V6.12766L16.8034 6.36541C17.16 6.48428 17.3978 6.72203 17.6355 6.95978C17.9921 7.3164 18.2299 7.7919 18.2299 8.38627C18.3488 8.98064 18.3488 9.69388 18.111 10.526C17.8733 11.477 17.6355 12.1902 17.2789 12.9035C16.9223 13.4978 16.4468 13.9733 15.9713 14.4488C15.4958 14.8055 14.7825 15.0432 14.1882 15.281C13.4749 15.3998 12.7617 15.5187 11.9296 15.5187H11.3352C10.9786 15.5187 10.622 15.6376 10.2653 15.8753C10.0276 16.1131 9.78984 16.4697 9.67096 16.8263V17.0641L8.95771 21.4624V21.5813V21.7002C8.95771 21.7002 8.9577 21.7002 8.83883 21.7002H5.51037V21.5813Z" fill="#263577"/>
<path d="M17.2791 5.6521C17.2791 5.77097 17.2791 5.88985 17.1603 6.00873C16.2093 10.7637 13.1186 12.309 9.07684 12.309H7.05596C6.58047 12.309 6.10499 12.6657 6.10499 13.1412L5.03511 19.7981L4.79736 21.7001C4.79736 22.0567 5.0351 22.2945 5.27285 22.2945H8.95796C9.43345 22.2945 9.79007 21.9379 9.79007 21.5812V21.3435L10.5033 17.064V16.8263C10.6222 16.3508 10.9788 16.113 11.3354 16.113H11.9298C15.496 16.113 18.2301 14.6865 18.9434 10.5259C19.3 8.74283 19.0623 7.31634 18.2301 6.36535C17.9924 6.1276 17.6358 5.88985 17.2791 5.6521Z" fill="#2199D6"/>
<path d="M16.3281 5.29559C16.2093 5.29559 16.0904 5.17671 15.8527 5.17671C15.7338 5.17671 15.496 5.05784 15.3771 5.05784C14.7828 4.93896 14.1884 4.93896 13.594 4.93896H8.12584C8.00696 4.93896 7.88808 4.93896 7.76921 5.05784C7.53146 5.17671 7.29372 5.41446 7.29372 5.65221L6.10498 13.0224V13.2602C6.22385 12.7847 6.58046 12.428 7.05596 12.428H9.07683C13.1186 12.428 16.2093 10.7638 17.1603 6.12771C17.1603 6.00883 17.1603 5.88996 17.2791 5.77108C17.0414 5.65221 16.8036 5.53334 16.5659 5.41446C16.447 5.29559 16.3281 5.29559 16.3281 5.29559Z" fill="#252C5E"/>
<path d="M7.29358 5.65153C7.29358 5.41378 7.53132 5.17604 7.76907 5.05716C7.88794 5.05716 8.00682 4.93829 8.1257 4.93829H13.5939C14.1883 4.93829 14.9015 4.93829 15.377 5.05716C15.4959 5.05716 15.7336 5.05716 15.8525 5.17604C15.9714 5.17604 16.0903 5.29491 16.328 5.29491C16.4469 5.29491 16.4469 5.29491 16.5657 5.41379C16.8035 5.53266 17.0413 5.65154 17.279 5.77041C17.5167 3.9873 17.279 2.79855 16.328 1.72869C15.2581 0.539947 13.3561 0.0644531 10.9787 0.0644531H3.9651C3.4896 0.0644531 3.0141 0.421072 3.0141 0.896568L0.161133 19.2032C0.161133 19.5598 0.398881 19.9164 0.755503 19.9164H5.03496L6.10484 13.0217L7.29358 5.65153Z" fill="#263577"/>
</svg>
