<svg width="118" height="23" viewBox="0 0 118 23" fill="none" xmlns="http://www.w3.org/2000/svg">
<path d="M30.77 14.1881C31.2746 14.7348 31.8857 15.1654 32.5632 15.452C33.3878 15.7685 34.2629 15.9225 35.1427 15.9059C35.6462 15.9059 36.1169 15.8415 36.5033 15.8079C36.8893 15.7564 37.2688 15.6625 37.6353 15.5276C37.9809 15.4295 38.2638 15.267 38.5468 15.1717C38.7708 15.0402 39.0015 14.9214 39.238 14.8158L38.887 14.0564C38.6992 14.1545 38.5087 14.2498 38.2883 14.3366C38.0833 14.4338 37.8735 14.5198 37.6598 14.5945C37.4054 14.6827 37.1411 14.7373 36.8734 14.757C36.5299 14.8149 36.1816 14.8365 35.8339 14.8214C35.2067 14.8455 34.5855 14.6883 34.0407 14.3675C33.5818 14.0731 33.1946 13.6743 32.9087 13.2017C32.6389 12.652 32.4552 12.0619 32.3645 11.4531C32.2616 10.7236 32.2089 9.98756 32.2067 9.25044C32.2067 8.63393 32.2693 7.9866 32.3019 7.33926C32.3495 6.75238 32.5018 6.17956 32.7509 5.64947C32.9751 5.15547 33.3088 4.72257 33.7251 4.38562C34.2522 4.04175 34.8644 3.86174 35.4883 3.86719C36.1178 3.8587 36.7339 4.05482 37.2489 4.42766C37.7523 4.78355 38.0353 5.36643 38.1604 6.14548H38.9468V3.65982C38.6965 3.56174 38.4434 3.46646 38.1604 3.37959C37.8643 3.2811 37.5587 3.21626 37.2489 3.18623C36.9033 3.12178 36.6203 3.12178 36.2747 3.08815C36.0026 3.08815 35.6761 3.0237 35.4584 3.0237C34.5271 3.00816 33.6005 3.16184 32.721 3.47767C32.0044 3.75051 31.3633 4.19946 30.8535 4.78552C30.3437 5.37158 29.9806 6.07699 29.7958 6.84045C29.5451 7.73521 29.4286 8.66414 29.4502 9.59513C29.4303 10.4837 29.5469 11.3699 29.7958 12.2209C29.9594 12.9488 30.2939 13.6243 30.77 14.1881Z" fill="#2F9A41"/>
<path d="M78.4952 15.4856C79.0589 15.4264 79.605 15.25 80.1006 14.9672C80.5989 14.6806 80.9954 14.2379 81.2326 13.7033C81.5549 12.9953 81.7062 12.2175 81.6734 11.4362C81.6937 10.8407 81.6012 10.2468 81.4013 9.6876C81.2096 9.20954 80.8943 8.79472 80.4897 8.48821C79.9811 8.1602 79.414 7.94012 78.8217 7.84088C78.0028 7.68452 77.1698 7.61969 76.3374 7.64752H75.2979V4.66305C75.2844 4.55243 75.2941 4.44011 75.3265 4.33372C75.3589 4.22734 75.4132 4.12939 75.4857 4.04654C75.736 3.94786 76.0061 3.91418 76.272 3.94846H77.7496C78.1281 3.93375 78.507 3.95533 78.8816 4.01292C79.1318 4.02816 79.3721 4.11879 79.5727 4.27353C79.7704 4.4349 79.9226 4.64775 80.0135 4.89004C80.1574 5.23542 80.273 5.59255 80.3591 5.95772H80.9687V3.17222H71.9891V3.56174C72.0516 3.56174 72.0843 3.6262 72.2394 3.6262C72.3972 3.69065 72.4925 3.72428 72.5115 3.78873C72.5764 3.8742 72.6295 3.96851 72.6693 4.06896C72.6693 4.2315 72.7319 4.34919 72.7319 4.58739V14.1769C72.7462 14.3523 72.7249 14.5289 72.6693 14.6953C72.6693 14.8579 72.6067 14.9532 72.5115 14.9756C72.4444 15.0636 72.347 15.1218 72.2394 15.1381C72.1622 15.1799 72.0763 15.2021 71.9891 15.2026V15.5921H76.5197C77.1795 15.5918 77.8389 15.5563 78.4952 15.4856ZM75.5265 14.5776C75.4765 14.5338 75.4365 14.4792 75.4092 14.4177C75.3819 14.3562 75.3681 14.2893 75.3687 14.2217C75.3687 14.0592 75.3061 13.8659 75.3061 13.6052V8.39013H76.3455C77.2571 8.39013 77.951 8.64794 78.3591 9.13555C78.7673 9.62315 78.9578 10.4302 78.9578 11.5343C78.9744 12.1234 78.9112 12.7119 78.77 13.283C78.6679 13.6569 78.4814 14.0006 78.2258 14.2862C78.0021 14.4654 77.7593 14.6177 77.502 14.7402C77.2123 14.8048 76.9168 14.8376 76.6204 14.8383C76.3482 14.7738 76.0761 14.7738 75.9292 14.7402C75.7799 14.7399 75.6362 14.6819 75.5265 14.5776Z" fill="#2F9A41"/>
<path d="M65.6598 15.1941C65.5972 15.1941 65.5646 15.1297 65.4095 15.1297C65.2516 15.0652 65.1564 15.0316 65.1374 14.9672C65.1183 14.9027 65.0421 14.8046 64.9795 14.6869C64.9795 14.5244 64.9169 14.4067 64.9169 14.1685V10.7217H66.1441C66.7452 10.7186 67.345 10.6642 67.9374 10.5591C68.4705 10.4719 68.9829 10.2818 69.4476 9.99866C69.9017 9.71367 70.2635 9.29624 70.487 8.79927C70.766 8.14711 70.8955 7.43753 70.8652 6.72555C70.8752 6.07112 70.7577 5.42126 70.5197 4.81438C70.2776 4.37927 69.9426 4.00652 69.5401 3.72428C69.1084 3.46326 68.6243 3.30794 68.1251 3.2703C67.5715 3.20355 67.0145 3.1708 66.4571 3.17222H61.6652V3.56174C61.7278 3.56174 61.7605 3.62619 61.9183 3.62619C62.0761 3.69065 62.1686 3.72428 62.1904 3.78873C62.2554 3.87414 62.3085 3.96846 62.3482 4.06896C62.3482 4.2315 62.4108 4.34919 62.4108 4.58739V14.1461C62.4254 14.3215 62.4041 14.4981 62.3482 14.6645C62.3482 14.827 62.2856 14.9223 62.1904 14.9447C62.1233 15.0328 62.0259 15.091 61.9183 15.1073C61.8403 15.1496 61.7534 15.1717 61.6652 15.1717V15.5276H65.6299L65.6598 15.1717V15.1941ZM64.9986 4.56777C64.9913 4.46998 65.0131 4.37222 65.0612 4.28754C65.0638 4.25041 65.0735 4.21419 65.0899 4.18099C65.1062 4.14779 65.1289 4.11828 65.1564 4.09418C65.2314 4.02656 65.3289 3.99142 65.4285 3.9961C65.5863 3.9961 65.7006 3.93165 65.9727 3.93165C66.2681 3.94821 66.5624 3.98095 66.8544 4.02973C67.1227 4.12961 67.3689 4.28399 67.5782 4.4837C67.7848 4.73722 67.9544 5.02044 68.0816 5.3244C68.1884 5.7471 68.2414 6.18229 68.2394 6.61907C68.2394 7.68675 68.0816 8.46579 67.7986 9.01785C67.5156 9.56991 66.9823 9.85854 66.2258 9.85854H64.9986V4.56777Z" fill="#2F9A41"/>
<path d="M60.0924 12.7309H59.306C59.2378 13.1247 59.147 13.514 59.0339 13.8967C58.9811 14.1497 58.8481 14.3775 58.6557 14.544C58.5636 14.6332 58.4548 14.7021 58.336 14.7464C58.2171 14.7907 58.0907 14.8096 57.9646 14.8018C57.5584 14.8631 57.1475 14.8847 56.7373 14.8663C56.3589 14.8853 55.9795 14.8637 55.6054 14.8018C55.3864 14.776 55.1736 14.7106 54.9768 14.6085C54.9075 14.5693 54.8485 14.5134 54.8049 14.4455C54.7613 14.3777 54.7344 14.2999 54.7265 14.2189C54.6684 13.9867 54.6473 13.7463 54.6639 13.5072V9.55589H56.7509C56.9387 9.55589 57.1292 9.62035 57.3496 9.62035C57.551 9.63953 57.751 9.67229 57.9482 9.71843C58.1226 9.76309 58.2915 9.82796 58.4516 9.91179V8.29205C58.3001 8.39477 58.128 8.46087 57.9482 8.48541C57.5531 8.56094 57.1543 8.6152 56.7537 8.64794H54.6448V4.52854C54.6454 4.3375 54.6776 4.14797 54.7401 3.96808C54.8353 3.87 54.9931 3.87 55.2435 3.87H56.5659C56.9444 3.85532 57.3233 3.87689 57.6979 3.93445C57.9466 3.95484 58.1853 4.04391 58.389 4.19226C58.5867 4.35363 58.7389 4.56648 58.8299 4.80877C58.9736 5.15516 59.0891 5.51321 59.1754 5.87926H59.804V3.17222H51.4094V3.56174C51.472 3.56174 51.5047 3.6262 51.6598 3.6262C51.8176 3.69065 51.9101 3.72428 51.9319 3.78873C51.9969 3.87414 52.05 3.96846 52.0897 4.06896C52.0897 4.2315 52.1523 4.34919 52.1523 4.58739V14.1461C52.1667 14.3215 52.1454 14.4981 52.0897 14.6645C52.0897 14.827 52.0271 14.9223 51.9319 14.9447C51.8647 15.0328 51.7673 15.091 51.6598 15.1073C51.5826 15.1491 51.4967 15.1712 51.4094 15.1717V15.5276H60.0924V12.7309Z" fill="#2F9A41"/>
<path d="M46.8162 15.4856C47.3799 15.4264 47.9261 15.25 48.4217 14.9672C48.9223 14.6732 49.3275 14.2335 49.5863 13.7033C49.9088 12.9954 50.0601 12.2175 50.0271 11.4362C50.0475 10.8407 49.9551 10.2468 49.755 9.6876C49.5633 9.20954 49.248 8.79472 48.8435 8.48821C48.3348 8.1602 47.7677 7.94012 47.1754 7.84088C46.3565 7.68448 45.5235 7.61965 44.6911 7.64752H43.6516V4.66305C43.6383 4.55244 43.6481 4.44016 43.6805 4.33381C43.7129 4.22745 43.7671 4.12949 43.8394 4.04654C44.0897 3.94786 44.3598 3.91418 44.6258 3.94846H46.1033C46.4818 3.93376 46.8607 3.95534 47.2353 4.01292C47.4842 4.03414 47.723 4.12418 47.9264 4.27353C48.1241 4.4349 48.2763 4.64775 48.3673 4.89004C48.5112 5.23537 48.6268 5.59251 48.7128 5.95772H49.3414V3.17222H40.3346V3.56174C40.3972 3.56174 40.4298 3.6262 40.5877 3.6262C40.7455 3.69065 40.838 3.72428 40.8598 3.78873C40.9247 3.8742 40.9778 3.96851 41.0176 4.06896C41.0176 4.2315 41.0802 4.34919 41.0802 4.58739V14.1461C41.0923 14.3214 41.071 14.4975 41.0176 14.6645C41.0176 14.827 40.955 14.9223 40.8598 14.9447C40.7926 15.0328 40.6952 15.091 40.5877 15.1073C40.5096 15.1496 40.4228 15.1717 40.3346 15.1717V15.6257H44.8652C45.5945 15.5837 46.1849 15.5837 46.8162 15.4856ZM43.8584 14.5776C43.8084 14.5338 43.7684 14.4792 43.7411 14.4177C43.7139 14.3562 43.7 14.2893 43.7006 14.2217C43.7006 14.0592 43.638 13.8659 43.638 13.6052V8.39013H44.6775C45.589 8.39013 46.2829 8.64794 46.6911 9.13555C47.0992 9.62315 47.2897 10.4302 47.2897 11.5343C47.3061 12.1234 47.2429 12.7119 47.1019 13.283C46.9998 13.6569 46.8133 14.0006 46.5577 14.2862C46.3341 14.4655 46.0912 14.6178 45.8339 14.7402C45.5442 14.8048 45.2487 14.8377 44.9523 14.8383C44.6802 14.7738 44.4489 14.7738 44.2611 14.7402C44.1868 14.7429 44.1127 14.7298 44.0434 14.7019C43.9741 14.6739 43.9112 14.6316 43.8584 14.5776Z" fill="#2F9A41"/>
<path d="M117.918 19.1118H29.3876V20.3112H117.918V19.1118Z" fill="#2F9A41"/>
<path d="M110.838 10.9178C111.091 11.2737 111.279 11.5652 111.529 11.8566C111.717 12.1368 111.97 12.4731 112.158 12.7645C112.346 13.082 112.556 13.3854 112.786 13.6725C113.018 13.9917 113.228 14.3269 113.415 14.6757C113.603 14.956 113.761 15.3231 113.918 15.6145L118 15.679C117.559 15.225 117.184 14.771 116.743 14.317C116.365 13.8631 116.019 13.4763 115.766 13.2157C115.388 12.7617 115.042 12.375 114.729 12.0163C114.416 11.6576 114.101 11.2709 113.818 10.915C113.526 10.5637 113.253 10.1961 113.001 9.81371C112.781 9.45781 112.457 9.00384 112.215 8.61432L112.403 8.3565C112.675 7.96698 113.031 7.54663 113.442 7.06183C113.817 6.54673 114.227 6.05976 114.669 5.60463C115.067 5.12954 115.49 4.67678 115.935 4.24831C116.292 3.91014 116.67 3.59654 117.067 3.30953H114.234C114.106 3.62173 113.959 3.92502 113.793 4.21748C113.594 4.62058 113.363 5.00584 113.102 5.36924C112.852 5.75876 112.558 6.20993 112.316 6.66391C112.073 7.11788 111.771 7.5046 111.499 7.92775C111.227 8.3509 110.955 8.73762 110.713 9.02906C110.463 9.38495 110.272 9.64557 110.114 9.86975C110.335 10.2032 110.585 10.5619 110.838 10.9178Z" fill="#2F9A41"/>
<path d="M110.493 15.1942C110.43 15.1942 110.397 15.1297 110.239 15.1297C110.082 15.0652 109.989 15.0316 109.967 14.9672C109.902 14.8818 109.849 14.7875 109.81 14.6869C109.81 14.5244 109.747 14.4067 109.747 14.1685V4.64063C109.732 4.46522 109.754 4.2886 109.81 4.12221C109.81 3.95967 109.872 3.86439 109.967 3.84197C110.05 3.77502 110.142 3.72031 110.239 3.67944C110.317 3.63716 110.404 3.61504 110.493 3.61499V3.19464H106.528V3.58416C106.59 3.58416 106.623 3.64861 106.781 3.64861C106.939 3.71307 107.031 3.7467 107.053 3.81115C107.118 3.8965 107.171 3.99083 107.211 4.09138C107.211 4.25391 107.273 4.37161 107.273 4.60981V14.1685C107.288 14.3439 107.267 14.5205 107.211 14.6869C107.211 14.8495 107.148 14.9447 107.053 14.9672C106.986 15.0555 106.889 15.1137 106.781 15.1297C106.703 15.172 106.616 15.1941 106.528 15.1942V15.55H110.493V15.1942Z" fill="#2F9A41"/>
<path d="M84.234 14.0928C84.3918 13.3811 84.6748 12.375 85.0503 11.1112H88.9197L89.4639 12.7309C89.6911 13.3197 89.873 13.9259 90.0081 14.544C90.1394 14.8978 90.2236 15.2683 90.2585 15.6453H93.3415C93.1836 15.3875 93.0694 15.0288 92.8381 14.6421C92.5737 14.0741 92.3429 13.4901 92.1469 12.8935L89.3496 4.72751C89.234 4.43503 89.1492 4.13064 89.0966 3.81956C89.034 3.56174 89.034 3.36558 89.0013 3.20305H85.5428V3.59257C85.6054 3.59257 85.6381 3.65702 85.7932 3.65702C85.951 3.72147 86.0435 3.7551 86.0653 3.81956C86.1303 3.90493 86.1834 3.99925 86.2231 4.09979V4.3576C86.2257 4.63592 86.172 4.91176 86.0653 5.16747L84.1142 10.0911C83.7687 10.9991 83.4231 11.809 83.2027 12.3918C82.9823 12.9747 82.6993 13.5576 82.5741 13.9471C82.3863 14.3366 82.2285 14.6925 82.0707 14.9504C81.9446 15.1598 81.8293 15.3759 81.7251 15.5977H83.9265C83.9998 15.0902 84.1025 14.5877 84.234 14.0928ZM87.004 5.21511L88.5877 10.2369H85.2598L87.004 5.21511Z" fill="#2F9A41"/>
<path d="M97.9374 15.1942H97.8394C97.7768 15.1942 97.7442 15.1297 97.5864 15.1297C97.4286 15.0652 97.336 15.0316 97.3143 14.9672C97.2493 14.8817 97.1962 14.7874 97.1564 14.6869C97.1564 14.5244 97.0939 14.4067 97.0939 14.1685V9.40457H101.782V14.1349C101.797 14.3103 101.776 14.4869 101.72 14.6533C101.72 14.8158 101.657 14.9111 101.562 14.9335C101.495 15.0216 101.397 15.0798 101.29 15.0961C101.213 15.1379 101.127 15.16 101.039 15.1605V15.55H105.004V15.1605C104.941 15.1605 104.909 15.0961 104.754 15.0961C104.596 15.0316 104.501 14.998 104.482 14.9335C104.416 14.8483 104.363 14.754 104.324 14.6533C104.324 14.4908 104.261 14.3731 104.261 14.1349V4.52854C104.247 4.35313 104.268 4.17651 104.324 4.01011C104.324 3.84758 104.386 3.7523 104.482 3.72988C104.565 3.66299 104.656 3.60828 104.754 3.56735C104.831 3.5255 104.917 3.5034 105.004 3.50289V3.17222H101.105V3.56174C101.167 3.56174 101.2 3.6262 101.355 3.6262C101.513 3.69065 101.608 3.72428 101.627 3.78873C101.692 3.87414 101.745 3.96846 101.785 4.06896C101.785 4.2315 101.848 4.34919 101.848 4.58739V8.58349H97.2163V4.56777C97.202 4.39236 97.2234 4.21582 97.2789 4.04935C97.2789 3.88681 97.3415 3.79153 97.4367 3.76911C97.5196 3.70207 97.6112 3.64735 97.7088 3.60658C97.7849 3.56164 97.8715 3.53933 97.9592 3.54213V3.17222H94.0054V3.56174C94.068 3.56174 94.1006 3.6262 94.2558 3.6262C94.4136 3.69065 94.5061 3.72428 94.5279 3.78873C94.5928 3.8742 94.6459 3.96851 94.6857 4.06896C94.6857 4.2315 94.7483 4.34919 94.7483 4.58739V14.1769C94.7605 14.3523 94.7393 14.5284 94.6857 14.6953C94.6857 14.8579 94.6231 14.9532 94.5279 14.9756C94.4607 15.0636 94.3633 15.1218 94.2558 15.1381C94.1785 15.1799 94.0927 15.2021 94.0054 15.2026V15.5921H97.97L97.9374 15.1717V15.1942Z" fill="#2F9A41"/>
<path d="M21.3332 4.46969C21.0801 4.1138 20.8298 3.7579 20.6094 3.39921L7.08012 11.4026L0.549501 7.54663C0.399615 7.96271 0.307993 8.39864 0.277392 8.8413L7.14271 12.9355L21.3332 4.46969Z" fill="#2F9A41"/>
<path d="M7.08012 14.4151L0.0651471 10.2677C0.0132362 10.5228 -0.00778547 10.7835 0.00256213 11.0439C0.00256213 14.2149 1.22571 17.256 3.40292 19.4981C5.58013 21.7403 8.53306 23 11.6121 23C14.6911 23 17.6441 21.7403 19.8213 19.4981C21.9985 17.256 23.2216 14.2149 23.2216 11.0439C23.2347 9.15205 22.8034 7.28499 21.9645 5.60183L7.08012 14.4151Z" fill="#2F9A41"/>
<path d="M19.6652 2.39598C19.3345 2.07459 18.9876 1.77151 18.6257 1.48803L7.08012 8.39013L1.51277 5.11703C1.32501 5.47292 1.13454 5.86244 0.914127 6.28279L7.01754 9.91179L19.6652 2.39598Z" fill="#2F9A41"/>
<path d="M17.4937 0.711788C17.0568 0.442387 16.6022 0.204553 16.1332 0L7.08012 5.36924L3.02297 3.01249C2.75086 3.29272 2.47876 3.65982 2.20665 4.01572L7.05019 6.86847L17.4937 0.711788Z" fill="#2F9A41"/>
</svg>
