<svg width="35" height="35" viewBox="0 0 35 35" fill="none" xmlns="http://www.w3.org/2000/svg">
<path fill-rule="evenodd" clip-rule="evenodd" d="M17.5 35C27.165 35 35 27.165 35 17.5C35 7.83502 27.165 0 17.5 0C7.83502 0 0 7.83502 0 17.5C0 27.165 7.83502 35 17.5 35ZM12.2052 19.3275L8.18186 17.8273C7.77271 17.6909 7.77271 17.0772 8.18186 16.9408L24.7525 10.5308C25.0935 10.3944 25.4344 10.7354 25.3662 11.0763L22.3658 25.3966C22.2976 25.7376 21.8884 25.874 21.6157 25.6694L17.5924 22.7371C17.3196 22.5326 16.9786 22.5326 16.774 22.7371L14.5237 24.5783C14.251 24.7829 13.8418 24.7147 13.7736 24.3737L12.2052 19.3275ZM21.4793 13.7358L13.569 18.5774C13.2281 18.7138 13.0917 19.123 13.2963 19.4639L14.1146 22.4644C14.1828 22.7371 14.5237 22.6689 14.5237 22.4644L14.7283 20.8278C14.7283 20.4868 14.9329 20.214 15.1374 20.0095L21.6157 13.9404C21.7521 13.8722 21.6157 13.6676 21.4793 13.7358Z" fill="#E0E0E0"/>
</svg>
