<svg width="35" height="35" viewBox="0 0 35 35" fill="none" xmlns="http://www.w3.org/2000/svg">
<path fill-rule="evenodd" clip-rule="evenodd" d="M17.5 35C27.165 35 35 27.165 35 17.5C35 7.83502 27.165 0 17.5 0C7.83502 0 0 7.83502 0 17.5C0 27.165 7.83502 35 17.5 35ZM26.0441 21.9033C26.0622 21.9214 26.0804 21.9396 26.0804 21.9759V21.9759C26.0804 22.0486 26.0804 22.1212 26.2257 22.2665V22.5571C26.2257 22.7024 26.153 22.775 26.0077 22.8477C25.8624 22.9203 25.6445 22.9929 25.4266 22.9929L22.9566 23.0656H22.9566C22.8113 23.0656 22.6661 23.0656 22.4481 22.9929C22.2302 22.9203 22.0849 22.8477 21.9396 22.775L21.9396 22.775L21.7217 22.6297C21.5764 22.5571 21.3585 22.3392 21.0679 22.0486L21.0679 22.0486L21.0677 22.0483C20.7772 21.7579 20.5593 21.54 20.4141 21.3221C20.2688 21.1042 20.0508 20.8862 19.8329 20.7409C19.6876 20.5957 19.4697 20.523 19.3244 20.5957H19.2518L19.1065 20.7409C19.0338 20.8136 18.9612 20.8862 18.8885 21.0315C18.8477 21.1131 18.8298 21.1947 18.8091 21.2892C18.793 21.3629 18.7751 21.4445 18.7432 21.54C18.6706 21.758 18.6706 21.9759 18.6706 22.2665V22.5571C18.6706 22.5934 18.6524 22.6116 18.6343 22.6297C18.6161 22.6479 18.5979 22.666 18.5979 22.7024L18.5253 22.775C18.38 22.9203 18.2347 22.9929 18.0168 22.9929H16.9271C16.4912 23.0656 16.0554 22.9929 15.5469 22.8477C15.111 22.7024 14.6751 22.5571 14.3119 22.3391C13.9487 22.1212 13.5854 21.9033 13.2949 21.6853C13.0043 21.4674 12.7864 21.2495 12.6411 21.1042L12.6411 21.1042L12.4231 20.8862L12.1325 20.5957C12.0599 20.4504 11.842 20.1598 11.4787 19.7239C11.252 19.4519 11.0536 19.1515 10.8482 18.8406C10.7245 18.6533 10.5982 18.4621 10.4617 18.271C10.3737 18.117 10.2724 17.9431 10.1618 17.7532C9.90716 17.3159 9.60327 16.7941 9.29937 16.237C8.8635 15.3652 8.42764 14.4935 8.06441 13.6217C7.99176 13.4764 7.99176 13.4038 7.99176 13.3312V13.1859L8.06441 13.1132C8.13705 13.0406 8.28234 12.9679 8.57292 12.9679H11.1881C11.2245 12.9679 11.2608 12.9861 11.2971 13.0042C11.3334 13.0224 11.3698 13.0406 11.4061 13.0406C11.4787 13.0406 11.5514 13.1132 11.5514 13.1132H11.624C11.6967 13.1859 11.7693 13.2585 11.842 13.4038C11.9146 13.5854 11.9872 13.7489 12.0599 13.9123C12.1325 14.0758 12.2052 14.2392 12.2778 14.4208C12.4231 14.7841 12.5684 15.0746 12.6411 15.2199L12.7863 15.5105C12.8856 15.8084 13.0188 16.0384 13.1396 16.2469C13.1956 16.3435 13.2488 16.4355 13.2949 16.5275C13.4401 16.8181 13.5854 17.0361 13.7307 17.1813C13.8034 17.3266 13.9487 17.4719 14.094 17.5446C14.1666 17.6172 14.3119 17.6899 14.3845 17.6899C14.4696 17.6899 14.5298 17.6649 14.5797 17.6443C14.6149 17.6297 14.645 17.6172 14.6751 17.6172C14.7477 17.6172 14.7478 17.5446 14.7478 17.5446C14.7991 17.5446 14.8142 17.5082 14.8443 17.4356C14.8567 17.4055 14.8718 17.3692 14.8931 17.3266C14.9657 17.254 15.0383 17.1087 15.0383 16.8908C15.0383 16.7956 15.0522 16.7005 15.0678 16.5933C15.0879 16.4549 15.111 16.2963 15.111 16.0917V14.9293C15.111 14.6388 15.111 14.4208 15.0383 14.2029C15.0106 14.1196 14.9934 14.047 14.9788 13.9849C14.9551 13.8846 14.9379 13.8119 14.8931 13.767L14.8204 13.6217C14.6751 13.4038 14.3845 13.2585 14.0213 13.1859C13.9487 13.1859 13.9487 13.1132 14.094 12.9679C14.1666 12.8226 14.3119 12.75 14.4572 12.6774L14.4572 12.6773C14.7478 12.5321 15.5469 12.4594 16.7092 12.4594C17.2177 12.4594 17.6536 12.5321 18.0168 12.6047C18.0531 12.641 18.1076 12.6592 18.1621 12.6773C18.2166 12.6955 18.271 12.7137 18.3074 12.75L18.5253 12.9679C18.5253 13.0042 18.5435 13.0587 18.5616 13.1132C18.5798 13.1677 18.5979 13.2222 18.5979 13.2585V13.6944V14.2029V14.8567V15.6558V16.0917V16.5275V16.8908C18.6298 16.9545 18.6477 17.0182 18.6638 17.0757C18.6845 17.1495 18.7024 17.2132 18.7432 17.254L18.9612 17.4719C18.9612 17.5446 19.0338 17.5446 19.1065 17.5446C19.1065 17.6172 19.2517 17.5446 19.3244 17.4719C19.3713 17.3781 19.4485 17.3146 19.5364 17.2422C19.5847 17.2025 19.6361 17.1602 19.6876 17.1087C19.794 17.0023 19.9004 16.857 20.0353 16.6727C20.0846 16.6053 20.1378 16.5327 20.1961 16.4549C20.414 16.1644 20.6319 15.8012 20.8498 15.4381L20.8499 15.4379C20.9232 15.2914 20.9964 15.1479 21.069 15.0055C21.3567 14.4419 21.635 13.8965 21.867 13.2585C21.867 13.1859 21.867 13.1859 21.9396 13.1132L21.9396 13.1132L22.0123 13.0406H22.0849H22.1576H22.3028H22.5208H25.2813C25.4992 12.9679 25.7171 12.9679 25.8624 13.0406C26.0077 13.0406 26.0804 13.1132 26.153 13.1859L26.2257 13.2585C26.371 13.6944 25.8624 14.6388 24.7728 16.0917C24.6232 16.2412 24.5079 16.3907 24.3564 16.5872C24.2871 16.6771 24.2102 16.7768 24.119 16.8908C24.0815 16.9389 24.0453 16.9854 24.0103 17.0304C23.5689 17.5972 23.3145 17.9238 23.2472 18.1257C23.1746 18.4163 23.1746 18.6342 23.3925 18.9248C23.432 18.9643 23.4768 19.0145 23.53 19.074C23.6724 19.2334 23.8742 19.4594 24.1916 19.7239C25.0634 20.523 25.7172 21.2495 26.0077 21.8306C26.0077 21.8669 26.0259 21.8851 26.0441 21.9033Z" fill="#E0E0E0"/>
</svg>
