<svg width="40" height="40" viewBox="0 0 40 40" fill="none" xmlns="http://www.w3.org/2000/svg">
<path fill-rule="evenodd" clip-rule="evenodd" d="M20 40C31.0457 40 40 31.0457 40 20C40 8.9543 31.0457 0 20 0C8.9543 0 0 8.9543 0 20C0 31.0457 8.9543 40 20 40ZM29.7647 25.0323C29.7854 25.053 29.8062 25.0738 29.8062 25.1153V25.1153C29.8062 25.1984 29.8062 25.2814 29.9722 25.4474V25.7795C29.9722 25.9455 29.8892 26.0286 29.7231 26.1116C29.5571 26.1946 29.308 26.2776 29.059 26.2776L26.2362 26.3607H26.2361C26.0701 26.3607 25.9041 26.3607 25.655 26.2776C25.406 26.1946 25.2399 26.1116 25.0739 26.0286L24.8248 25.8625C24.6588 25.7795 24.4097 25.5305 24.0777 25.1985L24.0776 25.1983L24.0774 25.1981C23.7454 24.8661 23.4964 24.6171 23.3304 24.3681C23.1643 24.119 22.9153 23.87 22.6662 23.7039C22.5001 23.5379 22.2511 23.4549 22.085 23.5379H22.002L21.836 23.7039C21.7529 23.787 21.6699 23.87 21.5869 24.036C21.5403 24.1293 21.5198 24.2225 21.4962 24.3305C21.4777 24.4147 21.4572 24.508 21.4208 24.6172C21.3378 24.8663 21.3378 25.1153 21.3378 25.4474V25.7795C21.3378 25.821 21.3171 25.8418 21.2963 25.8625C21.2755 25.8833 21.2548 25.904 21.2548 25.9455L21.1718 26.0286C21.0057 26.1946 20.8397 26.2776 20.5906 26.2776H19.3453C18.8471 26.3607 18.349 26.2776 17.7678 26.1116C17.2697 25.9456 16.7716 25.7795 16.3564 25.5304L16.3564 25.5304C15.9413 25.2813 15.5262 25.0323 15.1941 24.7832C14.8621 24.5342 14.613 24.2851 14.447 24.1191L14.4469 24.119L14.1978 23.87L13.8658 23.5379C13.7827 23.3718 13.5337 23.0397 13.1186 22.5416C12.8595 22.2307 12.6327 21.8875 12.3979 21.5321C12.2566 21.318 12.1123 21.0996 11.9562 20.8812C11.8557 20.7052 11.7399 20.5064 11.6135 20.2894C11.3225 19.7896 10.9752 19.1933 10.6279 18.5565C10.1297 17.5602 9.6316 16.564 9.21648 15.5677C9.13346 15.4016 9.13345 15.3186 9.13345 15.2356V15.0695L9.21648 14.9865C9.2995 14.9035 9.46555 14.8205 9.79764 14.8205H12.7865C12.828 14.8205 12.8695 14.8412 12.911 14.862C12.9525 14.8827 12.994 14.9035 13.0355 14.9035C13.1186 14.9035 13.2016 14.9865 13.2016 14.9865H13.2846C13.3676 15.0695 13.4506 15.1526 13.5337 15.3186C13.6167 15.5262 13.6997 15.713 13.7827 15.8998C13.8658 16.0866 13.9488 16.2734 14.0318 16.4809C14.1979 16.896 14.3639 17.2281 14.4469 17.3942L14.613 17.7263C14.7264 18.0667 14.8787 18.3295 15.0167 18.5679C15.0807 18.6783 15.1416 18.7834 15.1941 18.8886C15.3602 19.2207 15.5262 19.4698 15.6923 19.6358C15.7753 19.8019 15.9413 19.9679 16.1074 20.0509C16.1904 20.1339 16.3565 20.217 16.4395 20.217C16.5367 20.217 16.6055 20.1885 16.6625 20.1649C16.7028 20.1482 16.7372 20.1339 16.7716 20.1339C16.8546 20.1339 16.8546 20.0509 16.8546 20.0509C16.9133 20.0509 16.9305 20.0094 16.9649 19.9264C16.9791 19.892 16.9963 19.8505 17.0206 19.8019C17.1037 19.7188 17.1867 19.5528 17.1867 19.3037C17.1867 19.195 17.2025 19.0863 17.2203 18.9638C17.2433 18.8056 17.2697 18.6244 17.2697 18.3905V17.0621C17.2697 16.73 17.2697 16.4809 17.1867 16.2319C17.155 16.1367 17.1354 16.0537 17.1186 15.9828C17.0915 15.8681 17.072 15.785 17.0206 15.7337L16.9376 15.5677C16.7716 15.3186 16.4395 15.1526 16.0244 15.0695C15.9413 15.0695 15.9413 14.9865 16.1074 14.8205C16.1904 14.6544 16.3564 14.5714 16.5225 14.4884L16.5225 14.4884C16.8546 14.3223 17.7679 14.2393 19.0962 14.2393C19.6774 14.2393 20.1755 14.3223 20.5906 14.4054C20.6321 14.4469 20.6944 14.4676 20.7567 14.4884C20.8189 14.5091 20.8812 14.5299 20.9227 14.5714L21.1718 14.8205C21.1718 14.862 21.1925 14.9243 21.2133 14.9865C21.234 15.0488 21.2548 15.1111 21.2548 15.1526V15.6507V16.2319V16.9791V17.8923V18.3905V18.8886V19.3037C21.2912 19.3765 21.3116 19.4493 21.3301 19.5151C21.3538 19.5994 21.3742 19.6722 21.4208 19.7188L21.6699 19.9679C21.6699 20.0509 21.7529 20.0509 21.836 20.0509C21.836 20.1339 22.002 20.0509 22.085 19.9679C22.1386 19.8607 22.2269 19.7881 22.3274 19.7054C22.3825 19.66 22.4413 19.6116 22.5001 19.5528C22.6217 19.4312 22.7433 19.2651 22.8974 19.0546C22.9538 18.9775 23.0146 18.8945 23.0813 18.8056C23.3303 18.4735 23.5794 18.0585 23.8284 17.6434L23.8285 17.6433C23.9122 17.4759 23.9959 17.3119 24.0789 17.1492C24.4076 16.505 24.7257 15.8817 24.9908 15.1526C24.9908 15.0695 24.9908 15.0695 25.0738 14.9865L25.0739 14.9865L25.1569 14.9035H25.2399H25.3229H25.489H25.7381H28.8929C29.142 14.8205 29.391 14.8205 29.5571 14.9035C29.7231 14.9035 29.8062 14.9865 29.8892 15.0695L29.9722 15.1526C30.1382 15.6507 29.5571 16.73 28.3117 18.3905C28.1408 18.5614 28.009 18.7323 27.8359 18.9568C27.7566 19.0595 27.6688 19.1734 27.5645 19.3037C27.5218 19.3587 27.4803 19.4119 27.4403 19.4634C26.9358 20.1111 26.6452 20.4844 26.5683 20.7151C26.4853 21.0472 26.4852 21.2963 26.7343 21.6284C26.7794 21.6735 26.8307 21.7309 26.8914 21.7989C27.0541 21.981 27.2848 22.2393 27.6476 22.5416C28.6438 23.4549 29.3911 24.2851 29.7231 24.9493C29.7231 24.9908 29.7439 25.0115 29.7647 25.0323Z" fill="white"/>
</svg>
