<svg width="41" height="39" viewBox="0 0 41 39" fill="none" xmlns="http://www.w3.org/2000/svg">
<path d="M40.9296 15.8799C40.7153 14.5774 39.5367 13.709 37.9296 13.709C37.3938 13.709 36.9653 13.709 36.4295 13.709C35.4652 13.6004 35.2509 13.9261 35.2509 14.6859C35.2509 18.485 35.2509 22.1755 35.2509 25.9746C35.2509 27.9284 33.3223 29.9908 31.0722 30.4249C24.0006 32.0531 16.929 33.5727 9.85738 35.2009C9.10736 35.418 8.25021 35.418 7.39304 35.418C7.07161 35.418 6.53589 35.2009 6.42874 34.8753C6.32159 34.6582 6.64302 34.224 6.85732 34.0069C7.17875 33.7898 7.60734 33.5727 8.03592 33.3557C9.32167 32.9215 10.7145 32.4873 12.0003 32.0531C17.2504 30.3164 22.5006 28.5797 27.7507 26.7344C30.1079 25.9746 31.3937 24.3464 31.3937 22.2841C31.5008 15.7714 31.3937 9.1501 31.3937 2.6374C31.3937 1.55195 30.8579 0.683592 29.6793 0.249411C28.2864 -0.293314 27.0007 0.14086 25.8221 0.683585C18.3219 4.26557 10.9288 7.84757 3.42864 11.4296C1.28573 12.515 0 14.0346 0 16.2055C0 22.3926 0 28.5797 0 34.7667C0 35.0924 -2.61602e-05 35.418 0.10712 35.6351C0.857139 37.6975 2.78579 39 5.35728 39C10.6074 39 15.8575 39 21.1077 39C26.3578 39 31.5008 39 36.7509 39C37.9296 39 38.8939 38.7829 39.751 38.0231C40.8225 37.1547 40.8225 35.9607 40.8225 34.8753C40.8225 28.7968 40.8225 22.8268 40.8225 16.7483C41.0368 16.6397 41.0368 16.2055 40.9296 15.8799ZM19.0719 13.9261C19.6076 12.515 20.7863 11.6466 22.5006 11.4296C23.6792 11.321 24.6435 11.9723 24.8578 13.0577C25.0721 14.6859 23.1434 16.6397 21.1077 16.6397C19.5005 16.6397 18.5362 15.4457 19.0719 13.9261Z" fill="#E47418"/>
</svg>
