<svg width="36" height="35" viewBox="0 0 36 35" fill="none" xmlns="http://www.w3.org/2000/svg">
<path fill-rule="evenodd" clip-rule="evenodd" d="M18 35C27.665 35 35.5 27.165 35.5 17.5C35.5 7.83502 27.665 0 18 0C8.33502 0 0.5 7.83502 0.5 17.5C0.5 27.165 8.33502 35 18 35ZM25.5988 16.0399C25.6118 16.2218 25.624 16.3915 25.624 16.549V17.85V19.151V19.1512C25.624 19.4906 25.624 19.8865 25.5674 20.3389C25.5674 20.848 25.5109 21.2439 25.3977 21.6399C25.2846 22.0924 25.0583 22.4318 24.7755 22.7146C24.4927 22.9975 24.0967 23.1672 23.7008 23.2237C22.4563 23.3934 20.4765 23.45 17.8745 23.45C15.2725 23.45 13.3492 23.3934 12.0482 23.2237C11.6523 23.1672 11.2563 22.9975 10.9735 22.7146C10.6341 22.4318 10.4644 22.0924 10.3513 21.6399C10.2947 21.2442 10.2382 20.7921 10.1817 20.3399L10.1816 20.3389C10.1816 20.0964 10.1653 19.8701 10.1502 19.6601C10.1372 19.4782 10.125 19.3085 10.125 19.151V17.85V16.549C10.125 16.2096 10.125 15.8136 10.1816 15.3611C10.1816 14.852 10.2381 14.4561 10.3513 14.0601C10.4644 13.6076 10.6907 13.2682 10.9735 12.9854C11.2563 12.7025 11.6523 12.5328 12.0482 12.4763C13.2927 12.3066 15.2725 12.25 17.8745 12.25C20.4765 12.25 22.3997 12.3066 23.7008 12.4763C24.0967 12.5328 24.4927 12.7025 24.7755 12.9854C25.1149 13.2682 25.2846 13.6076 25.3977 14.0601C25.4543 14.4561 25.5109 14.9086 25.5674 15.3611C25.5674 15.6036 25.5837 15.8299 25.5988 16.0399ZM16.4038 21.0742L20.8725 18.3025C21.0422 18.1894 21.1553 17.9066 21.1553 17.7369C21.1553 17.5672 21.0422 17.3975 20.8725 17.2843L16.4038 14.5126C16.2341 14.3995 16.0078 14.3995 15.8381 14.5126C15.6684 14.6258 15.5553 14.7955 15.5553 15.0217V20.6217C15.5553 20.848 15.6684 21.0177 15.8381 21.1308C15.9513 21.1874 16.0078 21.1874 16.121 21.1874C16.2341 21.1874 16.3472 21.1308 16.4038 21.0742Z" fill="#E0E0E0"/>
</svg>
